# Blender 4.1.1
# www.blender.org
mtllib lulatsch.mtl
o Circle
v 10.974055 1.272754 -0.000103
v 9.102704 6.410683 -0.000177
v 4.007035 10.387481 -0.000177
v -1.272755 10.974055 -0.000104
v -6.410683 9.102704 -0.000177
v -10.387481 4.007035 -0.000177
v -10.974055 -1.272755 -0.000103
v -9.102704 -6.410683 -0.000176
v -4.007035 -10.387481 -0.000176
v 2.439248 -10.863064 -0.000176
v 7.155109 -8.417493 -0.000103
v 10.387481 -4.007035 -0.000176
v 6.459181 -1.118539 284.972260
v 6.190844 1.996199 284.973389
v 4.520436 4.747464 284.969818
v 1.118560 6.459202 284.972260
v -1.996179 6.190865 284.973389
v -4.747440 4.520459 284.969849
v -6.256515 1.779712 284.973419
v -6.285932 -2.097268 284.970642
v -3.632130 -5.435851 284.968109
v 0.465235 -6.610193 284.974457
v 4.649491 -4.649470 284.972229
v -6.781126 7.973489 40.785027
v -8.771554 5.550446 81.570076
v -6.511828 7.656841 122.355080
v -7.621756 6.034472 163.140121
v -6.031484 7.092032 203.925125
v -6.912741 5.473130 244.710144
v -8.644877 3.580841 203.925140
v -8.946286 4.582031 122.355080
v -9.316265 4.771518 40.785023
v 5.878400 -8.797658 40.785038
v 4.209621 -9.488232 81.570068
v 3.086011 -9.565947 122.355080
v 4.732295 -8.491823 163.140106
v 4.292070 -7.701869 244.710144
v 6.031481 -7.092005 203.925125
v 6.511828 -7.656823 122.355080
v -8.481008 2.411123 244.710144
v -9.350869 2.658418 163.140121
v 10.433087 -0.843118 40.785027
v 10.376940 0.258199 81.570076
v 10.018755 -0.809627 122.355080
v 9.656404 1.122394 163.140121
v 9.279716 -0.749897 203.925125
v 8.669160 1.949771 244.710159
v 8.860319 2.858381 203.925125
v 9.565957 3.086014 122.355080
v 9.961565 3.213626 40.785027
v 7.368288 -4.923314 244.710159
v 7.621759 -6.034444 163.140121
v 8.771555 -5.550432 81.570076
v -10.018755 0.809645 122.355080
v -10.376940 -0.258185 81.570068
v -10.433087 0.843123 40.785027
v 8.491837 4.732305 163.140106
v 8.997225 5.013936 81.570061
v 8.286360 -4.244009 203.925125
v 8.946285 -4.582014 122.355080
v 9.316264 -4.771513 40.785027
v -8.758120 -1.017954 244.710144
v -9.230312 -1.836010 203.925156
v -9.656404 -1.122371 163.140121
v 6.716558 5.712180 244.710144
v 7.092019 6.031497 203.925125
v 7.656832 6.511837 122.355080
v 7.973487 6.781127 40.785027
v 9.350870 -2.658390 163.140121
v -9.565957 -3.085994 122.355080
v -9.961565 -3.213619 40.785027
v 6.034458 7.621770 163.140121
v 5.550439 8.771560 81.570076
v 8.610415 -1.712700 244.710129
v -7.701887 -4.292052 244.710144
v -8.491835 -4.732284 163.140106
v -8.997225 -5.013925 81.570061
v 3.195169 8.291385 244.710159
v 3.580827 8.644893 203.925140
v 4.582023 8.946295 122.355080
v 4.771516 9.316267 40.785027
v -7.092019 -6.031467 203.925125
v -7.656832 -6.511818 122.355080
v -7.973487 -6.781122 40.785027
v 2.658404 9.350883 163.140121
v -5.473111 -6.912722 244.710144
v -6.034459 -7.621745 163.140121
v -5.550437 -8.771549 81.570076
v 0.809636 10.018764 122.355080
v -0.258192 10.376945 81.570076
v 0.843120 10.433090 40.785027
v -3.580825 -8.644863 203.925140
v -4.582022 -8.946277 122.355080
v -4.771515 -9.316262 40.785023
v -1.017973 8.758138 244.710144
v -1.836027 9.230328 203.925156
v -1.122381 9.656416 163.140121
v -2.411105 -8.480989 244.710144
v -2.658406 -9.350857 163.140121
v -3.086004 9.565967 122.355080
v -3.213623 9.961568 40.785027
v -0.809636 -10.018745 122.355080
v -0.829661 -10.266504 81.570061
v -0.000001 -10.520141 40.785034
v -4.292070 7.701906 244.710144
v -4.732292 8.491849 163.140106
v -5.013928 8.997231 81.570061
v 1.017973 -8.758101 244.710144
v 1.836025 -9.230297 203.925156
v 1.122382 -9.656391 163.140121
v -6.865260 4.587241 283.861633
v 3.744939 -7.311891 283.861603
v 8.188452 0.661752 283.861603
v 6.258019 -5.322178 283.861603
v -8.160210 0.948498 283.861603
v 7.258201 3.879606 283.861603
v 7.818377 -2.522207 283.861603
v -7.902017 -2.246481 283.861603
v 5.203732 6.340781 283.861603
v -5.998003 -5.706754 283.861664
v 2.522228 7.818398 283.861603
v -0.661731 8.188473 283.861603
v -2.522227 -7.818355 283.861603
v -3.879586 7.258221 283.861603
v 0.661730 -8.188431 283.861603
v -7.817051 3.012404 280.821930
v 4.046535 -7.261273 280.821869
v 8.257104 0.959757 280.821869
v 6.517287 -5.159999 280.821869
v 7.320022 3.912651 280.821869
v -8.257104 -0.959716 280.821869
v 7.995844 -2.273155 280.821869
v 5.283044 6.437423 280.821869
v -6.847625 -4.826029 280.821930
v 2.273176 7.995865 280.821869
v -3.789407 -7.398711 280.821869
v -0.959736 8.257125 280.821869
v 0.208376 -8.374782 280.821930
v -4.826050 6.847646 280.821930
v -6.346780 5.397697 279.542114
v 3.798056 -7.415591 279.542114
v -7.929260 2.558021 279.542114
v 8.014090 2.278379 279.542114
v 6.346780 -5.397655 279.542114
v -8.304585 -0.671094 279.542114
v 6.083073 5.787733 279.542145
v 8.191881 -1.842386 279.542145
v -7.415612 -3.798035 279.542114
v 3.174654 7.664315 279.542114
v -5.397678 -6.346757 279.542114
v -0.000002 8.373902 279.542145
v -2.558000 -7.929239 279.542114
v -3.798054 7.415635 279.542114
v 0.671115 -8.304564 279.542114
v -6.726694 5.720811 243.690536
v 4.025403 -7.859499 243.690536
v -8.465424 2.567981 243.690536
v 8.801702 0.711300 243.690536
v 6.726695 -5.720773 243.690536
v 7.859517 4.025422 243.690536
v -8.774546 -0.864196 243.690536
v 8.403908 -2.711110 243.690536
v 5.720791 6.726713 243.690536
v -7.859517 -4.025385 243.690536
v 2.567963 8.465442 243.690536
v -5.720795 -6.726673 243.690536
v -0.864213 8.774564 243.690536
v -2.567964 -8.465405 243.690536
v -4.025398 7.859538 243.690536
v 0.864213 -8.774528 243.690536
v -7.678431 5.411594 202.905518
v 2.548971 -8.965941 202.905502
v 5.786059 -7.308004 202.905502
v 9.390895 -0.233642 202.905518
v -9.258914 1.076192 202.905502
v 8.296395 4.249185 202.905502
v 8.142281 -4.537484 202.905502
v -8.965957 -2.548953 202.905487
v 5.411578 7.678447 202.905518
v -7.308019 -5.786045 202.905502
v 0.233657 9.390910 202.905518
v -4.537496 -8.142267 202.905502
v -1.076176 -9.258899 202.905502
v -4.249170 8.296411 202.905502
v -6.040206 7.629008 162.120468
v -8.499910 4.736801 162.120468
v 2.660940 -9.359745 162.120468
v 6.040205 -7.628984 162.120483
v 9.665585 -1.123431 162.120468
v 9.359758 2.660945 162.120483
v -9.665585 1.123456 162.120468
v 8.499909 -4.736779 162.120468
v 7.628996 6.040218 162.120468
v -9.359759 -2.660919 162.120483
v 4.736792 8.499922 162.120468
v -7.628996 -6.040193 162.120468
v 1.123444 9.665597 162.120468
v -4.736789 -8.499898 162.120468
v -2.660933 9.359771 162.120483
v -1.123444 -9.665572 162.120468
v -7.662323 6.516504 121.335457
v 1.983669 -9.972552 121.335472
v 7.148567 -7.148554 121.335464
v -9.572818 3.088222 121.335457
v 10.025938 0.810231 121.335457
v 8.952701 4.585315 121.335457
v -10.025938 -0.810212 121.335457
v 9.572817 -3.088205 121.335457
v 6.516494 7.662333 121.335457
v -8.952701 -4.585299 121.335457
v 3.088214 9.572826 121.335457
v -6.516495 -7.662313 121.335457
v -0.810221 10.025948 121.335457
v -3.088215 -9.572807 121.335457
v -4.585305 8.952711 121.335457
v -6.396815 8.079415 80.550415
v -9.001740 5.016456 80.550415
v 3.734423 -9.690702 80.550430
v 10.236237 -1.189766 80.550415
v 9.912356 2.818034 80.550415
v 8.488926 -5.982792 80.550430
v -10.236237 1.189777 80.550415
v 8.079411 6.396820 80.550415
v -9.690709 -3.734414 80.550430
v 5.016452 9.001744 80.550415
v -5.982798 -8.488920 80.550430
v 1.189771 10.236242 80.550415
v -2.818028 9.912362 80.550415
v -1.189771 -10.236231 80.550415
v -9.145945 5.096813 39.765408
v 4.928146 -9.219913 39.765408
v 10.071149 2.863173 39.765408
v 7.975873 -6.783154 39.765408
v -10.400216 1.208840 39.765408
v 8.208839 6.499290 39.765408
v 10.294578 -2.315315 39.765450
v -10.071149 -2.863167 39.765408
v 5.096810 9.145947 39.765408
v -8.208839 -6.499284 39.765408
v 1.208837 10.400219 39.765408
v -4.944551 -9.250596 39.765411
v -2.863170 10.071152 39.765408
v 0.262458 -10.548464 39.765438
v -6.499287 8.208842 39.765408
v 12.348029 1.416874 285.533020
v 10.952061 5.854013 285.495148
v 7.971754 9.564250 285.518524
v 3.604079 11.883997 285.493896
v -0.979369 12.389684 285.535004
v -5.669994 11.069622 285.496033
v -8.746362 8.746418 285.516174
v -10.952062 5.854012 285.495148
v -12.354102 1.435951 285.495148
v -11.990231 -3.267053 285.520691
v -9.631502 -7.904357 285.495148
v -5.946760 -10.891835 285.518341
v -1.221685 -12.399635 285.496063
v 2.444323 -12.122241 285.518768
v 5.854771 -10.951687 285.493896
v 8.807440 -8.693923 285.523438
v 11.695400 -4.508133 285.492889
v -7.925288 9.657001 283.861633
v 3.638508 -11.994528 283.861633
v 12.432540 -1.224473 283.861603
v -10.185421 6.805685 39.765408
v -8.726377 8.424364 41.152603
v -8.584546 8.288042 81.937477
v -7.585756 8.919611 121.335457
v -8.379222 8.088885 122.722832
v -7.175093 8.742895 162.120483
v -8.070207 7.855753 163.416107
v -7.756045 7.756058 202.905548
v -7.729751 7.524090 204.200699
v -7.505108 7.140723 243.690567
v -7.290371 7.155658 244.894089
v 4.981316 -11.227585 39.765411
v 4.792349 -11.142673 41.060982
v 3.683043 -11.416640 80.550423
v 4.760896 -10.944403 81.937706
v 3.594955 -11.143564 121.335457
v 4.601505 -10.699536 122.630371
v 3.477755 -10.780253 162.120483
v 4.450404 -10.347809 163.415527
v 3.155505 -10.402291 202.905502
v 4.261890 -9.905966 204.201187
v 4.854399 -9.081934 243.690536
v 4.036159 -9.381062 244.986298
v 12.106630 1.407182 39.765400
v 12.128444 0.163438 41.060982
v 11.915805 1.384997 80.550423
v 11.934404 0.160902 81.846054
v 11.658663 0.000009 121.335449
v 11.642443 0.158117 122.630974
v 11.293169 -1.112265 162.120483
v 11.261820 0.198736 163.507980
v 10.782152 -1.061939 202.905502
v 10.778251 0.191675 204.293427
v 10.214333 1.006043 243.690536
v 10.210565 0.180095 245.078079
v 2.208461 -11.921560 41.060616
v 2.172740 -11.730886 81.846291
v 2.170335 -11.440511 122.539131
v 2.050421 -11.071167 163.416412
v 2.011273 -10.599047 204.109100
v 1.904631 -10.037566 244.894180
v -6.647548 10.142267 40.969028
v -6.541250 9.980151 81.754082
v -6.383226 9.739122 122.539131
v -6.131337 9.443647 163.415894
v -5.912467 9.021284 204.109314
v -5.521593 8.586580 245.078491
v 0.215435 -12.122441 41.153198
v 0.111246 -11.935579 81.753860
v 0.205306 -11.644693 122.722832
v 0.153002 -11.259824 163.416077
v 0.191659 -10.778235 204.293427
v 0.180077 -10.210546 245.078079
v -4.792349 11.142678 41.060982
v -4.760896 10.944412 81.937706
v -4.645913 10.679745 122.722832
v -4.493308 10.328529 163.507980
v -4.301728 9.884476 204.293427
v -4.036159 9.381098 244.986298
v -2.521999 -11.864573 41.060955
v -2.482081 -11.671020 81.845833
v -2.373311 -11.401246 122.539200
v -2.342376 -11.018107 163.416199
v -2.242571 -10.549609 204.201187
v -2.081534 -9.999322 244.894318
v -2.208461 11.921566 41.060616
v -2.172740 11.730897 81.846291
v -2.120179 11.447423 122.631340
v -2.098975 11.064671 163.324203
v -2.011273 10.599077 204.109100
v -1.904631 10.037602 244.894180
v -4.537143 -11.248095 40.968666
v -4.415369 -11.083005 81.846313
v -4.311245 -10.817694 122.631004
v -4.211664 -10.444431 163.324219
v -3.993291 -10.020682 204.200699
v -3.741482 -9.504599 245.078293
v -0.215435 12.122447 41.153198
v -0.111246 11.935591 81.753860
v -0.158108 11.642452 122.630974
v -0.200304 11.257405 163.508453
v -0.191659 10.778266 204.293427
v -0.180077 10.210583 245.078079
v -6.868201 -9.991433 41.060616
v -6.760163 -9.836604 81.845184
v -6.595106 -9.593914 122.630783
v -6.380215 -9.283237 163.415482
v -6.108484 -8.885245 204.201477
v -5.785880 -8.415597 244.986603
v 2.521999 11.864578 41.060955
v 2.482081 11.671031 81.845833
v 2.372879 11.403724 122.538925
v 2.342376 11.018132 163.416199
v 2.242571 10.549640 204.201187
v 2.081534 9.999358 244.894318
v -8.424361 -8.726374 41.152603
v -8.324073 -8.551010 81.845924
v -8.088876 -8.379212 122.722832
v -7.821440 -8.101678 163.507751
v -7.520978 -7.728313 204.201187
v -7.124282 -7.318679 244.985657
v 4.490530 11.265642 41.059856
v 4.415368 11.083016 81.846313
v 4.311245 10.817713 122.631004
v 4.211664 10.444456 163.324219
v 4.035118 10.005009 204.109100
v 3.738821 9.501570 245.078644
v -10.142264 -6.647545 40.969028
v -10.006290 -6.496849 81.845695
v -9.764674 -6.339517 122.631340
v -9.443773 -6.131087 163.416412
v -9.022576 -5.914245 204.109100
v -8.564548 -5.560087 244.986542
v 6.826324 10.022813 40.969028
v 6.760163 9.836616 81.845184
v 6.595107 9.593933 122.630783
v 6.380216 9.283261 163.415482
v 6.108295 8.885422 204.201004
v 5.785393 8.417283 244.986282
v -11.122533 -4.838254 41.152603
v -10.944407 -4.760890 81.937706
v -10.699544 -4.601496 122.630371
v -10.347820 -4.450390 163.415527
v -9.884460 -4.301713 204.293427
v -9.381080 -4.036140 244.986298
v 11.859231 -2.521831 41.060616
v 11.671025 -2.482074 81.845833
v 11.403714 -2.372869 122.538925
v 11.026695 -2.295388 163.324265
v 10.560801 -2.197409 204.108994
v 9.999340 -2.081516 244.894318
v 8.424361 8.726378 41.152603
v 8.288036 8.584552 81.937477
v 8.088876 8.379231 122.722832
v 7.855741 8.070219 163.416107
v 7.491147 7.760558 204.293137
v 7.156322 7.291443 244.894196
v -11.914137 -2.260255 40.969028
v -11.723680 -2.224085 81.754082
v -11.447413 -2.120170 122.631340
v -11.064658 -2.098964 163.324203
v -10.597826 -2.011273 204.108994
v -10.037584 -1.904612 244.894180
v 11.285983 -4.443652 41.152603
v 11.083011 -4.415362 81.846313
v 10.817703 -4.311236 122.631004
v 10.459756 -4.166934 163.416428
v 10.020804 -3.992992 204.201324
v 9.501552 -3.738802 245.078644
v 10.142264 6.647551 40.969028
v 9.980145 6.541256 81.754082
v 9.739113 6.383235 122.539131
v 9.443635 6.131349 163.415894
v 9.021269 5.912482 204.109314
v 8.586562 5.521612 245.078491
v -12.122443 -0.215432 41.153198
v -11.934403 -0.160890 81.846054
v -11.646009 -0.156689 122.630371
v -11.257393 -0.200291 163.508453
v -10.780412 -0.191916 204.293549
v -10.210565 -0.180058 245.078079
v 10.022810 -6.826322 40.969028
v 9.836610 -6.760157 81.845184
v 9.593924 -6.595098 122.630783
v 9.283249 -6.380203 163.415482
v 8.885406 -6.108280 204.201004
v 8.417265 -5.785374 244.986282
v 11.142675 4.792352 41.060982
v 10.944407 4.760902 81.937706
v 10.679735 4.645922 122.722832
v 10.328517 4.493320 163.507980
v 9.884460 4.301744 204.293427
v 9.381081 4.036177 244.986298
v -11.864575 2.522002 41.060955
v -11.671025 2.482087 81.845833
v -11.401256 2.373320 122.539200
v -11.018120 2.342388 163.416199
v -10.549624 2.242587 204.201187
v -9.999340 2.081553 244.894318
v 8.726376 -8.424358 41.152603
v 8.551016 -8.324067 81.845924
v 8.379222 -8.088865 122.722832
v 8.101690 -7.821427 163.507751
v 7.758618 -7.487171 204.293549
v 7.320258 -7.125232 244.985886
v 11.921563 2.208464 41.060616
v 11.723680 2.224097 81.754082
v 11.447412 2.120188 122.631340
v 11.064658 2.098988 163.324203
v 10.599062 2.011288 204.109100
v 10.037584 1.904649 244.894180
v -11.248097 4.537146 40.968666
v -11.083011 4.415375 81.846313
v -10.817703 4.311254 122.631004
v -10.444444 4.211677 163.324219
v -10.020698 3.993307 204.200699
v -9.504617 3.741500 245.078293
v 6.647548 -10.142262 40.969028
v 6.496855 -10.006284 81.845695
v 6.339526 -9.764665 122.631340
v 6.131099 -9.443761 163.416412
v 5.873975 -9.045433 204.201187
v 5.560106 -8.564530 244.986542
v -9.991436 6.868205 41.060616
v -9.836610 6.760170 81.845184
v -9.593924 6.595115 122.630783
v -9.283249 6.380227 163.415482
v -8.885261 6.108500 204.201477
v -8.415615 5.785898 244.986603
v -11.054242 5.908632 283.861633
v 7.925287 -9.656960 283.861603
v 12.034775 3.421442 283.861633
v -12.471017 1.007828 283.861633
v 11.054241 -5.908589 283.861633
v 9.134958 8.691442 283.861755
v -11.907390 -3.841333 283.861633
v -9.656980 -7.925267 283.861603
v 4.767387 11.509511 283.861572
v 1.007806 12.471038 283.861633
v -5.908610 -11.054220 283.861633
v -3.841355 11.907411 283.861603
v -1.224495 -12.432519 283.861603
v -9.248533 6.518171 279.542236
v 5.465329 -9.807217 279.542145
v 3.243709 -10.693064 280.821869
v 11.067349 2.201459 279.542206
v 11.274837 -0.280510 280.821930
v -9.887600 5.285054 280.821869
v 6.946828 -8.774083 280.821869
v -11.120438 1.095284 280.821869
v 9.406281 6.285094 280.821960
v 9.775739 -5.447757 280.821869
v -10.728671 -3.254486 280.821869
v 4.304399 10.391752 280.821930
v -8.637809 -7.088840 280.821869
v -5.285032 -9.887579 280.821869
v -0.901449 11.154874 280.821869
v -0.901446 -11.154832 280.821869
v -6.030706 9.530561 280.821930
v 8.802375 -6.969193 279.542145
v -11.193396 1.102473 279.542145
v 9.294930 6.210695 279.542114
v 10.799335 -3.070176 279.542145
v -10.727537 -3.254147 279.542145
v 6.269146 9.382471 279.542206
v -8.694479 -7.135352 279.542145
v 1.296238 11.152217 279.542145
v -5.284470 -9.886538 279.542145
v -4.068582 10.557876 279.542206
v 0.000002 -11.349266 279.542236
v -9.887536 2.810997 243.690536
v 7.933990 -6.511240 243.690536
v 9.081953 4.854414 243.690536
v -10.106893 -2.273094 243.690567
v 9.854488 -2.989311 243.690536
v 6.511261 7.934007 243.690536
v -7.140706 -7.505088 243.690567
v 2.989329 9.854506 243.690536
v -2.273113 10.106910 243.690567
v -2.810979 -9.887518 243.690536
v 1.006025 -10.214314 243.690536
v 7.029699 -8.265744 202.905502
v -10.367801 3.145055 202.905502
v 10.437191 2.967255 202.905502
v 9.657763 -4.946403 202.905502
v -10.774869 -1.865916 202.905533
v 7.756042 7.756061 202.905548
v -8.402916 -6.896083 202.905502
v 2.127614 10.696233 202.905518
v -4.946416 -9.657749 202.905502
v -2.967240 10.437206 202.905502
v -1.061953 -10.782137 202.905502
v -9.894655 5.514057 162.120483
v 7.175091 -8.742872 162.120468
v 10.780268 3.477758 162.120483
v -11.293169 1.112289 162.120483
v 9.894653 -5.514035 162.120483
v 8.050237 8.050251 162.120499
v -10.780268 -3.477732 162.120483
v -8.050239 -8.050224 162.120499
v 3.477744 10.780280 162.120483
v 0.000000 11.278573 162.120468
v -3.477745 -10.780255 162.120483
v -3.477746 10.780280 162.120483
v 0.000000 -11.278548 162.120468
v -10.310839 5.511269 121.335457
v 7.585756 -8.919591 121.335457
v 11.143575 3.594961 121.335457
v -11.673763 1.149762 121.335457
v 10.872613 -4.503587 121.335472
v 8.919601 7.585764 121.335457
v -11.143575 -3.594941 121.335457
v 4.503596 10.872622 121.335472
v -8.919602 -7.585745 121.335457
v -5.511260 -10.310829 121.335457
v 0.000000 11.658672 121.335449
v -3.594952 11.143584 121.335457
v -1.149753 -11.673754 121.335457
v -10.478747 5.839565 80.550423
v 7.598648 -9.258988 80.550423
v -11.714847 2.330234 80.550415
v 10.024877 6.698415 80.550430
v 10.478746 -5.839555 80.550423
v -11.915805 -1.384985 80.550423
v 11.714847 -2.330222 80.550415
v -10.024877 -6.698404 80.550430
v 5.839561 10.478752 80.550423
v 2.330228 11.714852 80.550415
v -5.839559 -10.478742 80.550423
v -1.384991 11.915811 80.550423
v -1.177940 -11.959819 80.550423
v -6.698410 10.024882 80.550430
v 9.555707 -7.565650 39.765400
v -12.151355 1.196813 39.765400
v 10.646562 5.933077 39.765400
v 11.723572 -3.332939 39.765400
v -11.227587 -4.981314 39.765411
v 6.805682 10.185424 39.765408
v -6.805682 -10.185418 39.765408
v 1.196810 12.151358 39.765400
v -4.981317 11.227590 39.765411
v -1.196810 -12.151352 39.765400
v 6.561072 -0.163225 283.763641
v 5.796385 2.968762 283.763641
v 3.291067 5.760668 283.763672
v -1.746256 6.400549 283.763672
v -5.364635 3.780894 283.763641
v -6.468861 0.751909 283.763641
v -6.243245 -1.893847 283.763641
v -4.960938 -4.219054 283.763641
v -1.918606 -6.324768 283.763672
v 1.893868 -6.243224 283.763641
v 5.109127 -4.192929 283.763672
v 2.013843 -0.141173 283.763641
v 1.440236 1.440254 283.763641
v -0.198696 2.017420 283.763641
v -1.446832 1.376601 283.763641
v -2.045669 -0.061108 283.763641
v -1.275863 -1.554623 283.763641
v 0.198697 -2.017376 283.763641
v 1.446832 -1.376558 283.763641
v 1.139909 1.706016 287.291168
v -0.777440 1.876928 287.291168
v -1.820766 0.807839 287.291168
v -1.859173 -0.921167 287.291107
v -0.437078 -1.943356 287.291168
v 0.953132 -1.783164 287.291168
v 2.053144 -0.202196 287.291168
v -9.496264 -0.041682 244.802414
v 7.919275 5.240746 244.802399
v 8.787453 -3.601339 244.789230
v -9.327299 -1.767030 244.894669
v 6.652843 6.772311 244.894684
v 9.293520 -1.936844 244.894669
v 9.496264 0.041719 244.802414
v -8.743606 -3.699899 244.868317
v 5.328409 7.858652 244.848526
v -7.923635 -5.232953 244.820847
v 3.601358 8.787471 244.789230
v -6.662141 -6.764293 244.868317
v 1.936862 9.293538 244.894669
v -5.328409 -7.858615 244.848526
v -0.041701 9.496282 244.802414
v -3.595536 -8.789342 244.802414
v -1.767048 9.327317 244.894669
v -3.699918 8.743624 244.868317
v -1.924622 -9.296932 244.868317
v 0.041701 -9.496245 244.802414
v 7.858634 -5.328391 244.848526
v 8.743606 3.699937 244.868317
v -9.296950 1.924641 244.868317
v 6.764311 -6.662123 244.868317
v 9.327299 1.767067 244.894669
v -8.789360 3.595554 244.802414
v 5.232972 -7.923617 244.820847
v -7.858634 5.328428 244.848526
v 3.699918 -8.743587 244.868317
v -6.772292 6.652862 244.894684
v 1.767048 -9.327281 244.894669
v -5.240728 7.919294 244.802399
v -10.027165 -0.044027 204.017395
v 8.378492 5.504490 204.083298
v 9.283576 -3.787920 204.035843
v -9.851061 -1.847167 204.146561
v 7.059134 7.121434 204.017395
v 9.813131 -2.045150 204.109665
v 10.026486 0.053089 204.035843
v -9.247039 -3.877904 204.017395
v 5.634247 8.291798 204.083298
v -8.385082 -5.492767 204.109665
v 3.736317 9.300564 204.146576
v -7.092606 -7.092591 203.925110
v 2.008965 9.823253 204.035843
v -5.615231 -8.306676 204.035843
v -0.037592 10.027666 204.004211
v -3.753524 -9.294876 204.109665
v -2.008965 -9.823222 204.035843
v -1.865837 9.848818 204.109665
v -3.886004 9.242970 204.035843
v 8.291782 -5.634232 204.083298
v 9.242955 3.886020 204.035843
v -9.825764 1.999930 204.017380
v 7.117200 -7.064023 204.004211
v 9.847190 1.879177 204.083298
v -9.294890 3.753539 204.109665
v 5.525527 -8.366615 204.035843
v -8.306691 5.615246 204.035843
v 3.918339 -9.226607 204.109665
v -7.142511 7.034628 204.083298
v 1.865837 -9.848787 204.109665
v -5.504475 8.378508 204.083298
v 0.037592 -10.027636 204.004211
v -10.469648 -0.055409 163.250839
v 8.748837 5.747797 163.298279
v 9.693902 -3.955346 163.250839
v -10.282452 -1.962214 163.298279
v 7.371132 7.436185 163.232391
v 10.246903 -2.135553 163.324646
v 10.470347 0.046003 163.232391
v -9.640547 -4.079465 163.298294
v 5.883288 8.658309 163.298279
v -8.743665 -5.756927 163.278503
v 3.919442 9.705768 163.324661
v -7.376247 -7.431751 163.219208
v 2.097758 10.257427 163.250824
v -5.883288 -8.658284 163.298279
v -0.045991 10.470360 163.232391
v -3.919442 -9.705743 163.324661
v -2.097758 -10.257402 163.250824
v -1.948316 10.284163 163.324646
v -4.057763 9.651498 163.250839
v 8.658297 -5.883276 163.298279
v 9.651485 4.057775 163.250839
v -10.257415 2.097770 163.250824
v 7.431763 -7.376235 163.219208
v 10.284151 1.948328 163.324646
v -9.705755 3.919455 163.324661
v 5.756939 -8.743652 163.278503
v -8.658297 5.883301 163.298279
v 4.079479 -9.640534 163.298294
v -7.436173 7.371144 163.232391
v 1.997004 -10.278191 163.232376
v -5.747784 8.748849 163.298279
v 0.093139 -10.466842 163.324661
v -10.822265 -0.096293 122.539627
v 9.045894 5.942955 122.513252
v 10.027633 -4.075719 122.493492
v -10.627148 -2.064796 122.447342
v 7.621384 7.688641 122.447350
v 10.598709 -2.194106 122.513252
v 10.822265 0.096312 122.539627
v -9.961615 -4.230464 122.539627
v 6.083049 8.952291 122.513252
v -9.028039 -5.974456 122.447342
v 4.075728 10.027642 122.493492
v -7.621384 -7.688622 122.447350
v 2.194115 10.598719 122.513252
v -6.083049 -8.952271 122.513252
v -0.096303 10.822274 122.539627
v -4.075728 -10.027623 122.493492
v -2.194115 -10.598700 122.513252
v -2.064805 10.627157 122.447342
v -4.195528 9.979174 122.465805
v 8.952281 -6.083040 122.513252
v 9.979164 4.195537 122.465805
v -10.598709 2.194124 122.513252
v 7.688632 -7.621375 122.447350
v 10.627148 2.064815 122.447342
v -10.027633 4.075737 122.493492
v 5.974465 -9.028029 122.447342
v -8.952281 6.083058 122.513252
v 4.230474 -9.961607 122.539627
v -7.688632 7.621393 122.447350
v 2.028853 -10.631573 122.513252
v -5.942946 9.045903 122.513252
v 0.057302 -10.825095 122.465805
v -11.093573 -0.048725 81.662331
v 9.287273 6.058988 81.791496
v 10.267772 -4.200298 81.662331
v -10.898993 -2.043678 81.791496
v 7.815289 7.874118 81.649147
v 10.856956 -2.262702 81.754593
v 11.093572 0.048737 81.662331
v -10.233677 -4.283943 81.649147
v 6.245248 9.164625 81.754593
v -9.277005 -6.077047 81.754593
v 4.200304 10.267777 81.662331
v -7.809882 -7.878791 81.662331
v 2.262709 10.856962 81.754593
v -6.245248 -9.164615 81.754593
v -0.084415 11.091028 81.728241
v -4.200304 -10.267766 81.662331
v -2.262709 -10.856951 81.754593
v -2.105560 10.891284 81.680771
v -4.290348 10.230480 81.662331
v 9.164619 -6.245242 81.754593
v 10.230474 4.290354 81.662331
v -10.856956 2.262715 81.754593
v 7.878798 -7.809875 81.662331
v 10.896421 2.064314 81.754593
v -10.267772 4.200310 81.662331
v 6.077053 -9.276999 81.754593
v -9.164620 6.245254 81.754593
v 4.290349 -10.230472 81.662331
v -7.874112 7.815295 81.649147
v 2.105560 -10.891273 81.680771
v -6.058982 9.287279 81.791496
v 0.084415 -11.091017 81.728241
v 9.300475 -6.363335 41.006466
v -11.272906 -0.059675 40.895756
v 9.427634 6.175724 40.969563
v 10.434416 -4.268471 40.877300
v -11.071454 -2.112787 40.943199
v 7.942121 8.001902 40.864117
v 11.060369 -2.200041 40.785019
v 11.271841 0.074912 40.923435
v -10.396513 -4.359978 40.877300
v 6.363338 9.300478 41.006466
v -9.438095 -6.157372 41.006466
v 4.233998 10.445953 40.943211
v -7.942121 -8.001896 40.864117
v 2.248519 11.047182 40.877285
v -6.334732 -9.322667 40.943199
v -0.059678 11.272909 40.895756
v -4.200902 -10.457021 41.006481
v -2.248519 -11.047176 40.877285
v -2.200044 11.060371 40.785019
v -4.382754 10.385161 40.923435
v 10.385159 4.382757 40.923435
v -11.047179 2.248522 40.877285
v 8.001899 -7.942118 40.864117
v 11.060369 2.200047 40.785019
v -10.457024 4.200905 41.006481
v 6.157375 -9.438092 41.006466
v -9.322670 6.334735 40.943199
v 4.369090 -10.391968 40.895756
v -8.001899 7.942123 40.864117
v 2.200044 -11.060366 40.785019
v -6.175721 9.427637 40.969563
v 0.059678 -11.272903 40.895756
v -6.889205 -7.267610 204.478775
v 10.981111 -2.491053 41.338684
v -1.900854 11.098512 41.338684
v 11.098509 1.900857 41.338684
v 1.900854 -11.098506 41.338684
vn -0.0000 -0.0000 1.0000
vn -0.2912 0.9566 -0.0143
vn -0.1020 0.7094 -0.6973
vn -0.3030 0.6278 -0.7170
vn -0.0971 0.9953 0.0065
vn 0.0201 0.6440 -0.7648
vn -0.1756 0.6884 -0.7037
vn 0.0953 0.9951 0.0259
vn 0.2050 0.6803 -0.7037
vn -0.0253 0.7281 -0.6850
vn 0.0964 0.9953 -0.0023
vn 0.1620 0.6491 -0.7433
vn -0.0403 0.6435 -0.7644
vn 0.2748 -0.9612 0.0242
vn 0.0828 -0.7116 -0.6977
vn 0.3104 -0.6043 -0.7338
vn 0.2257 -0.9741 -0.0166
vn 0.1266 -0.6481 -0.7509
vn 0.3224 -0.6417 -0.6959
vn 0.3177 0.9481 0.0091
vn 0.3210 0.6546 -0.6844
vn 0.1200 0.6676 -0.7348
vn -0.0235 -0.6747 -0.7377
vn 0.4891 0.8721 0.0121
vn 0.4385 0.5495 -0.7112
vn 0.2332 0.6542 -0.7195
vn -0.0958 -0.9951 0.0244
vn -0.1999 -0.6681 -0.7167
vn 0.0253 -0.7281 -0.6850
vn -0.1953 -0.9807 -0.0045
vn -0.1370 -0.6185 -0.7738
vn 0.0358 -0.6634 -0.7474
vn 0.7107 0.7033 -0.0167
vn 0.4175 0.4253 -0.8030
vn 0.3570 0.6097 -0.7077
vn 0.6939 0.7199 -0.0158
vn 0.4454 0.4367 -0.7816
vn 0.3426 0.5837 -0.7361
vn -0.3893 -0.9206 -0.0322
vn -0.2330 -0.6028 -0.7631
vn -0.1213 -0.7163 -0.6871
vn -0.3173 -0.9483 0.0082
vn -0.3210 -0.6546 -0.6844
vn -0.1192 -0.6542 -0.7469
vn 0.7776 0.6288 0.0039
vn 0.6215 0.3558 -0.6979
vn 0.5849 0.7299 -0.3538
vn -0.4933 -0.8699 -0.0014
vn -0.4300 -0.5495 -0.7164
vn -0.2393 -0.6359 -0.7338
vn -0.9953 0.0967 -0.0050
vn -0.6889 0.1785 -0.7025
vn -0.6576 -0.0370 -0.7525
vn -0.7103 -0.7036 -0.0199
vn -0.4435 -0.4463 -0.7772
vn -0.3684 -0.6074 -0.7038
vn 0.9841 0.1750 -0.0295
vn 0.6404 0.1394 -0.7553
vn 0.6256 0.2950 -0.7222
vn 0.9740 0.2257 -0.0172
vn 0.6481 0.1266 -0.7509
vn 0.6439 0.3318 -0.6895
vn -0.9206 0.3893 -0.0322
vn -0.6028 0.2330 -0.7631
vn -0.7163 0.1213 -0.6871
vn 0.6688 -0.0232 -0.7431
vn -0.8733 0.4868 -0.0172
vn -0.5464 0.4166 -0.7266
vn -0.6359 0.2393 -0.7337
vn -0.8752 0.4837 -0.0062
vn -0.5395 0.4008 -0.7404
vn -0.6567 0.2256 -0.7196
vn 0.9950 -0.0959 0.0277
vn 0.6803 -0.2050 -0.7037
vn 0.6792 0.0731 -0.7303
vn 0.9952 -0.0974 -0.0083
vn 0.6580 -0.1886 -0.7290
vn 0.6515 0.0539 -0.7567
vn -0.9593 -0.2821 0.0084
vn -0.6924 -0.0996 -0.7146
vn -0.6022 -0.3082 -0.7365
vn -0.6466 0.7628 -0.0037
vn -0.3435 0.5793 -0.7392
vn -0.4732 0.4192 -0.7748
vn -0.9953 -0.0963 0.0087
vn -0.6486 0.0199 -0.7608
vn -0.6884 -0.1756 -0.7037
vn 0.8699 -0.4933 -0.0014
vn 0.5495 -0.4300 -0.7164
vn 0.6359 -0.2393 -0.7338
vn 0.8751 -0.4839 -0.0068
vn 0.5527 -0.4135 -0.7235
vn 0.6860 -0.2419 -0.6862
vn 0.7199 -0.6939 -0.0192
vn 0.4615 -0.4656 -0.7551
vn 0.5853 -0.3575 -0.7278
vn -0.6768 0.7328 -0.0704
vn -0.8223 0.5690 0.0058
vn -0.9609 0.2770 0.0004
vn 0.9713 -0.2325 -0.0502
vn 0.9999 -0.0137 0.0076
vn 0.9557 0.2941 -0.0083
vn -0.9942 0.0895 0.0597
vn -0.9472 -0.3205 -0.0052
vn 0.8815 0.4721 0.0112
vn 0.7110 0.7021 -0.0395
vn 0.6435 -0.7576 0.1092
vn 0.7815 -0.6162 0.0976
vn -0.9595 -0.2702 -0.0795
vn -0.7588 -0.6436 0.0996
vn 0.4702 0.8785 0.0843
vn 0.1503 0.9733 -0.1735
vn -0.5666 -0.8237 -0.0244
vn -0.2867 -0.9495 0.1277
vn -0.2593 0.9657 0.0163
vn -0.3432 0.9348 0.0911
vn -0.1725 0.0342 -0.9844
vn -0.1828 0.0338 -0.9826
vn -0.1837 0.0879 -0.9790
vn -0.0341 -0.1725 -0.9844
vn -0.0338 -0.1828 -0.9826
vn -0.0879 -0.1837 -0.9790
vn 0.0379 0.1401 -0.9894
vn 0.0781 0.1773 -0.9811
vn 0.1009 0.1558 -0.9826
vn 0.1544 -0.1182 -0.9809
vn 0.1873 -0.0756 -0.9794
vn 0.1830 -0.1289 -0.9746
vn 0.0838 -0.1132 -0.9900
vn 0.1559 -0.1441 -0.9772
vn 0.1020 -0.1680 -0.9805
vn -0.2054 0.0912 -0.9744
vn -0.1767 0.0320 -0.9838
vn -0.1992 0.0888 -0.9759
vn -0.0807 -0.2014 -0.9762
vn -0.0334 -0.1742 -0.9841
vn -0.0844 -0.1975 -0.9767
vn 0.1095 0.2392 -0.9648
vn 0.0261 0.1587 -0.9870
vn 0.0802 0.1685 -0.9824
vn -0.1085 -0.0330 -0.9935
vn 0.0628 -0.2035 -0.9770
vn -0.1445 -0.0736 -0.9868
vn -0.2736 -0.0570 -0.9602
vn -0.1505 -0.0664 -0.9864
vn -0.2378 -0.0495 -0.9700
vn -0.0883 0.1469 -0.9852
vn -0.0972 0.1546 -0.9832
vn -0.0677 0.1671 -0.9836
vn -0.0015 -0.1689 -0.9856
vn 0.0335 -0.1617 -0.9863
vn -0.0053 -0.1696 -0.9855
vn -0.1710 -0.0347 -0.9847
vn -0.1512 -0.0314 -0.9880
vn -0.1846 0.0062 -0.9828
vn 0.1469 0.0883 -0.9852
vn 0.1546 0.0972 -0.9832
vn 0.1671 0.0677 -0.9836
vn -0.0211 -0.1812 -0.9832
vn -0.0021 -0.1162 -0.9932
vn -0.0281 -0.1279 -0.9914
vn -0.1779 0.1193 -0.9768
vn -0.1407 0.0510 -0.9887
vn -0.1835 0.1230 -0.9753
vn -0.1366 -0.0189 -0.9904
vn -0.1272 0.0049 -0.9919
vn -0.1435 0.0283 -0.9892
vn -0.1204 -0.1779 -0.9766
vn -0.0524 -0.1429 -0.9883
vn -0.1107 -0.1733 -0.9786
vn 0.0095 0.1848 -0.9827
vn 0.0115 0.1467 -0.9891
vn 0.0264 0.1218 -0.9922
vn 0.1193 0.1779 -0.9768
vn 0.0510 0.1407 -0.9887
vn 0.1230 0.1835 -0.9753
vn 0.1320 0.0113 -0.9912
vn 0.1316 -0.0103 -0.9912
vn 0.1435 -0.0283 -0.9892
vn 0.1753 -0.1185 -0.9774
vn 0.1407 -0.0510 -0.9887
vn 0.1733 -0.1107 -0.9786
vn -0.0182 -0.1303 -0.9913
vn -0.1555 -0.1476 -0.9767
vn 0.0131 -0.1829 -0.9830
vn -0.0811 0.1305 -0.9881
vn -0.1219 0.1113 -0.9863
vn -0.0782 0.1200 -0.9897
vn 0.1385 -0.2045 -0.9690
vn 0.1101 -0.0993 -0.9889
vn 0.1163 -0.1657 -0.9793
vn -0.1427 -0.0834 -0.9862
vn -0.1105 -0.1164 -0.9870
vn -0.1298 -0.0842 -0.9880
vn 0.1046 0.1697 -0.9799
vn 0.0520 0.1171 -0.9918
vn 0.0743 0.1103 -0.9911
vn 0.1339 0.0894 -0.9870
vn 0.1050 0.1178 -0.9875
vn 0.1200 0.0782 -0.9897
vn 0.1125 -0.0979 -0.9888
vn 0.1139 -0.0327 -0.9930
vn 0.1184 -0.0808 -0.9897
vn 0.0656 -0.0658 -0.9957
vn -0.1075 0.6819 -0.7235
vn 0.0063 -0.0926 -0.9957
vn -0.0539 -0.0803 -0.9953
vn 0.3373 0.6170 -0.7110
vn -0.0891 -0.0341 -0.9954
vn 0.6820 0.1750 -0.7101
vn -0.1088 0.0289 -0.9936
vn 0.5060 -0.4721 -0.7218
vn -0.0683 0.0640 -0.9956
vn -0.0318 0.0914 -0.9953
vn 0.0655 0.0665 -0.9956
vn -0.4054 -0.5620 -0.7210
vn 0.0918 0.0338 -0.9952
vn -0.2022 0.9793 -0.0067
vn -0.4590 0.8882 -0.0207
vn -0.6505 0.7594 -0.0083
vn -0.9928 -0.1192 -0.0081
vn -0.9665 -0.2559 -0.0199
vn -0.8127 -0.5827 -0.0094
vn -0.7722 0.6351 -0.0203
vn -0.9317 0.3632 -0.0082
vn 0.9231 -0.3845 -0.0094
vn 0.9932 -0.1148 -0.0202
vn 0.9928 0.1191 -0.0081
vn 0.9617 0.2735 -0.0190
vn 0.8123 0.5832 -0.0095
vn -0.9762 0.2158 -0.0214
vn -0.3845 -0.9231 -0.0094
vn -0.1148 -0.9932 -0.0202
vn 0.1191 -0.9928 -0.0081
vn 0.3679 0.9298 -0.0080
vn 0.4489 0.8934 -0.0162
vn -0.0164 0.9996 -0.0221
vn 0.2735 -0.9617 -0.0190
vn 0.5827 -0.8127 -0.0094
vn -0.5441 0.8390 0.0044
vn -0.8189 0.5739 -0.0105
vn -0.8739 0.4860 -0.0012
vn 0.9527 0.3039 -0.0027
vn 0.9267 0.3756 -0.0093
vn 0.7622 0.6473 0.0008
vn 0.5673 0.8235 -0.0087
vn 0.4620 0.8869 -0.0010
vn -0.4192 0.9079 0.0028
vn -0.2083 0.9780 -0.0144
vn -0.6939 0.7199 -0.0149
vn -0.8452 0.5345 0.0028
vn 0.8442 -0.5360 -0.0009
vn 0.9519 -0.3063 -0.0110
vn 1.0000 0.0076 -0.0011
vn -0.9474 0.3199 -0.0119
vn -1.0000 -0.0076 -0.0011
vn -0.5360 -0.8442 -0.0009
vn -0.3063 -0.9519 -0.0110
vn 0.0076 -1.0000 -0.0011
vn 0.5509 0.8345 -0.0021
vn 0.2894 0.9571 -0.0125
vn 0.0776 0.9970 0.0014
vn 0.7821 -0.6231 -0.0088
vn 0.8191 -0.5734 -0.0137
vn 0.9618 -0.2736 -0.0062
vn -0.4868 0.8735 -0.0059
vn -0.6207 0.7839 -0.0144
vn -0.7840 0.6207 -0.0059
vn 0.9909 -0.1336 -0.0152
vn 0.9933 0.1155 -0.0059
vn -0.8803 0.4742 -0.0152
vn -0.9617 0.2739 -0.0052
vn 0.9618 0.2734 -0.0144
vn 0.8735 0.4868 -0.0059
vn -0.9999 0.0050 -0.0141
vn -0.9950 -0.0993 -0.0081
vn -0.6231 -0.7821 -0.0088
vn -0.5616 -0.8272 -0.0150
vn -0.2741 -0.9617 -0.0056
vn 0.7839 0.6207 -0.0144
vn 0.6207 0.7840 -0.0059
vn -0.0228 -0.9996 -0.0153
vn 0.0993 -0.9950 -0.0081
vn 0.4867 0.8734 -0.0144
vn 0.2735 0.9619 -0.0059
vn 0.1154 0.9932 -0.0144
vn -0.1155 0.9933 -0.0059
vn -0.2734 0.9618 -0.0144
vn 0.6453 -0.7639 -0.0066
vn 0.7631 -0.6461 -0.0162
vn 0.9322 -0.3617 -0.0078
vn -0.1832 0.9830 -0.0075
vn -0.4584 0.8886 -0.0169
vn -0.6341 0.7732 -0.0071
vn -0.9967 0.0805 -0.0081
vn -0.9966 -0.0805 -0.0162
vn -0.9517 -0.3070 -0.0081
vn -0.7617 0.6478 -0.0162
vn -0.8900 0.4558 -0.0081
vn -0.8899 -0.4558 -0.0162
vn -0.7522 -0.6589 -0.0075
vn -0.9516 0.3070 -0.0162
vn -0.6461 -0.7631 -0.0162
vn -0.3617 -0.9322 -0.0078
vn 0.9830 0.1832 -0.0075
vn 0.8886 0.4584 -0.0169
vn 0.7639 0.6453 -0.0066
vn 0.6461 0.7631 -0.0162
vn 0.3617 0.9322 -0.0078
vn 0.1832 -0.9830 -0.0075
vn 0.4584 -0.8886 -0.0169
vn 0.5737 -0.8187 -0.0242
vn 0.4630 -0.8850 -0.0500
vn 0.8236 -0.5660 -0.0372
vn 0.4558 0.8900 -0.0118
vn 0.3141 0.9483 -0.0448
vn -0.0304 0.9993 -0.0197
vn 0.8240 0.5665 -0.0121
vn 0.7152 0.6969 -0.0523
vn 0.9930 0.1181 -0.0001
vn 0.9570 0.2866 -0.0459
vn 0.9303 -0.3666 -0.0084
vn 0.9915 -0.1199 -0.0508
vn -0.3631 -0.9317 -0.0092
vn 0.0285 -0.9995 -0.0166
vn 0.0869 -0.9961 -0.0118
vn -0.3868 -0.9220 -0.0168
vn -0.9816 0.1907 -0.0111
vn -0.9763 0.2156 -0.0192
vn -0.9719 -0.2351 -0.0134
vn -0.7566 -0.6538 -0.0116
vn -0.7357 -0.6772 -0.0147
vn -0.0000 -0.0000 -1.0000
vn -0.2835 0.9567 -0.0658
vn -0.3598 0.6651 -0.6544
vn -0.6433 0.7619 -0.0747
vn -0.9555 -0.2873 -0.0666
vn -0.7111 -0.0707 -0.6995
vn -0.6753 -0.3641 -0.6413
vn -0.8503 0.5261 -0.0126
vn -0.7280 0.2710 -0.6297
vn -0.9883 0.1000 -0.1153
vn -0.4332 -0.9012 -0.0087
vn -0.2305 -0.7175 -0.6573
vn -0.0845 -0.9932 -0.0795
vn 0.0666 -0.7120 -0.6990
vn 0.2936 -0.9526 -0.0799
vn 0.3479 -0.6692 -0.6566
vn 0.6393 -0.7665 -0.0618
vn -0.4706 0.8803 -0.0604
vn -0.6315 0.7750 0.0237
vn -0.7736 0.6289 -0.0774
vn -0.8818 0.4714 0.0135
vn -0.9543 0.2733 -0.1209
vn -0.8269 -0.5526 0.1041
vn -0.8317 -0.5549 0.0183
vn -0.5781 -0.7909 -0.2007
vn -0.3646 -0.9286 0.0687
vn -0.9954 0.0320 0.0899
vn -0.9475 -0.2299 -0.2224
vn -0.0116 0.9948 -0.1009
vn 0.1577 0.9860 -0.0544
vn -0.2827 0.9555 0.0837
vn -0.5095 0.4525 -0.7319
vn -0.0836 0.9961 0.0284
vn -0.5106 0.8590 -0.0378
vn -0.7275 0.6859 0.0164
vn 0.7351 -0.6774 0.0293
vn 0.7014 -0.3001 -0.6465
vn 0.9988 0.0314 0.0366
vn -0.9992 0.0371 0.0118
vn -0.9962 0.0789 -0.0364
vn -0.7130 -0.7010 0.0150
vn 0.6947 0.3490 -0.6290
vn 0.6359 0.7709 0.0366
vn 0.0677 -0.9973 0.0269
vn -0.5712 -0.8198 -0.0395
vn 0.3522 -0.9352 -0.0383
vn 0.0001 -0.0000 -1.0000
vn 0.1901 0.7383 -0.6471
vn -0.0791 -0.0909 -0.9927
vn -0.5026 -0.4676 -0.7272
vn -0.6344 -0.7729 -0.0113
vn 0.0683 -0.2028 -0.9768
vn 0.1093 -0.3497 -0.9305
vn -0.1814 -0.8596 -0.4778
vn 0.1620 0.1449 -0.9761
vn 0.2813 0.2348 -0.9305
vn 0.8636 0.1613 -0.4778
vn 0.1510 -0.1632 -0.9750
vn 0.2348 -0.2813 -0.9305
vn 0.1613 -0.8636 -0.4778
vn -0.2818 -0.2468 -0.9272
vn -0.8636 -0.1613 -0.4778
vn -0.5635 0.3451 -0.7506
vn -0.5747 0.2606 -0.7758
vn -0.6476 0.2204 -0.7294
vn -0.5423 0.3956 -0.7412
vn 0.1536 -0.1082 -0.9822
vn 0.1494 -0.0612 -0.9869
vn 0.1548 -0.1024 -0.9826
vn 0.1363 -0.0663 -0.9884
vn -0.5718 0.4127 -0.7090
vn 0.1405 -0.0982 -0.9852
vn 0.1351 -0.0590 -0.9891
vn -0.6140 0.3611 -0.7019
vn -0.6376 0.3305 -0.6959
vn -0.5171 -0.4801 -0.7086
vn -0.5066 -0.3827 -0.7726
vn 0.1657 0.0988 -0.9812
vn 0.1122 0.1175 -0.9867
vn -0.6265 -0.3653 -0.6885
vn 0.1486 0.0929 -0.9845
vn 0.1236 0.1401 -0.9824
vn -0.4148 -0.4145 -0.8100
vn -0.5913 -0.3705 -0.7163
vn 0.1215 0.1142 -0.9860
vn -0.6079 -0.3655 -0.7049
vn 0.1375 0.0861 -0.9867
vn 0.1161 0.1309 -0.9846
vn -0.4383 -0.5072 -0.7421
vn -0.5496 -0.3688 -0.7496
vn 0.1233 0.0863 -0.9886
vn 0.1179 0.1125 -0.9866
vn -0.4719 -0.5047 -0.7229
vn -0.5750 -0.4431 -0.6877
vn -0.5109 -0.4693 -0.7202
vn -0.1672 -0.0377 -0.9852
vn -0.1588 -0.0594 -0.9855
vn 0.7102 0.1108 -0.6952
vn -0.1392 -0.0584 -0.9885
vn 0.6331 0.3138 -0.7076
vn 0.6843 0.1014 -0.7221
vn -0.1565 -0.0257 -0.9873
vn -0.1504 -0.0637 -0.9866
vn 0.6155 0.3034 -0.7274
vn 0.7026 0.1849 -0.6871
vn -0.1313 -0.0330 -0.9908
vn -0.1575 -0.0612 -0.9856
vn 0.6460 0.2283 -0.7284
vn 0.7355 0.1142 -0.6679
vn -0.1539 -0.0258 -0.9877
vn -0.1437 -0.0720 -0.9870
vn 0.5731 0.2356 -0.7849
vn -0.6860 0.0951 -0.7214
vn 0.1668 -0.0324 -0.9855
vn 0.1782 -0.0065 -0.9840
vn 0.1546 -0.0257 -0.9876
vn 0.1725 0.0016 -0.9850
vn -0.6877 0.1906 -0.7005
vn 0.1505 -0.0217 -0.9884
vn 0.1669 -0.0057 -0.9860
vn -0.6655 -0.0453 -0.7450
vn 0.1224 -0.0244 -0.9922
vn 0.1406 0.0022 -0.9901
vn -0.7038 0.0005 -0.7104
vn -0.6795 0.0148 -0.7335
vn -0.6722 0.1449 -0.7260
vn -0.7264 0.0684 -0.6838
vn 0.1267 0.0290 -0.9915
vn -0.3596 -0.5654 -0.7423
vn -0.2606 -0.5747 -0.7758
vn -0.3360 -0.6915 -0.6395
vn -0.3460 -0.6404 -0.6857
vn 0.0895 0.1258 -0.9880
vn 0.0802 0.1353 -0.9876
vn 0.0601 0.1239 -0.9905
vn -0.4127 -0.5718 -0.7090
vn 0.0982 0.1405 -0.9852
vn 0.0590 0.1351 -0.9891
vn -0.3709 -0.5628 -0.7387
vn -0.2481 -0.6881 -0.6819
vn 0.6182 0.3632 -0.6970
vn -0.1504 -0.1062 -0.9829
vn -0.1298 -0.1288 -0.9831
vn 0.1709 -0.3502 -0.9209
vn 0.5989 0.3588 -0.7160
vn -0.1487 -0.1013 -0.9837
vn -0.1417 -0.1365 -0.9805
vn 0.5824 0.3459 -0.7357
vn -0.1564 -0.0968 -0.9829
vn -0.1338 -0.1472 -0.9800
vn 0.4279 0.4811 -0.7651
vn 0.4847 0.5248 -0.6998
vn 0.5219 0.3534 -0.7763
vn -0.1402 -0.0941 -0.9856
vn -0.1101 -0.1021 -0.9887
vn 0.5872 0.4739 -0.6562
vn 0.5331 0.4637 -0.7077
vn -0.0796 -0.7065 -0.7032
vn 0.0327 0.1758 -0.9839
vn 0.0066 0.1823 -0.9832
vn 0.0067 0.1857 -0.9826
vn 0.0251 0.1636 -0.9862
vn 0.0038 0.1830 -0.9831
vn 0.0165 -0.6509 -0.7590
vn 0.0244 0.1224 -0.9922
vn -0.0022 0.1406 -0.9901
vn -0.0005 -0.7038 -0.7104
vn -0.0220 -0.7094 -0.7045
vn -0.1434 -0.6845 -0.7147
vn 0.0351 0.1699 -0.9848
vn -0.0188 0.1487 -0.9887
vn -0.1071 -0.1667 -0.9802
vn 0.2708 0.5877 -0.7624
vn 0.4097 0.6144 -0.6743
vn 0.2229 0.6429 -0.7328
vn -0.0929 -0.1441 -0.9852
vn -0.0601 -0.1239 -0.9905
vn 0.2255 0.6606 -0.7160
vn 0.4020 0.5507 -0.7315
vn -0.0982 -0.1405 -0.9852
vn -0.0590 -0.1352 -0.9891
vn 0.2552 0.7174 -0.6483
vn 0.3538 0.5398 -0.7638
vn -0.0796 -0.1157 -0.9901
vn -0.0457 -0.1034 -0.9936
vn -0.0377 0.1672 -0.9852
vn -0.0711 0.1714 -0.9826
vn -0.0504 0.2236 -0.9734
vn -0.0666 0.1530 -0.9860
vn 0.1121 -0.6906 -0.7145
vn -0.0377 0.1649 -0.9856
vn 0.2818 -0.5936 -0.7538
vn 0.1044 -0.6578 -0.7459
vn -0.0307 0.1794 -0.9833
vn -0.0744 0.1716 -0.9824
vn 0.2968 -0.5846 -0.7551
vn 0.1681 -0.6664 -0.7264
vn -0.0414 0.1503 -0.9878
vn -0.0635 0.1552 -0.9858
vn 0.2360 -0.6390 -0.7321
vn 0.2371 -0.5823 -0.7776
vn -0.0753 0.1429 -0.9869
vn 0.0952 0.6795 -0.7275
vn -0.0027 -0.1835 -0.9830
vn -0.2276 0.6400 -0.7339
vn -0.4721 0.8816 -0.0018
vn -0.4019 0.9151 -0.0319
vn -0.1134 0.9570 -0.2669
vn -0.2339 0.5834 -0.7778
vn -0.3036 0.9528 -0.0037
vn -0.0838 0.6834 -0.7252
vn -0.2832 0.5879 -0.7577
vn -0.3047 0.9524 -0.0050
vn -0.1099 0.7160 -0.6894
vn -0.3029 0.6286 -0.7163
vn -0.3077 0.9513 -0.0183
vn -0.1117 0.6616 -0.7415
vn -0.2945 0.6132 -0.7330
vn 0.4596 -0.5322 -0.7110
vn 0.8324 -0.5542 -0.0038
vn 0.4053 -0.9140 -0.0190
vn 0.4685 -0.5911 -0.6567
vn 0.5584 -0.8292 -0.0228
vn 0.3688 -0.5496 -0.7496
vn 0.5047 -0.4719 -0.7229
vn 0.6458 -0.7634 -0.0079
vn 0.3655 -0.6079 -0.7049
vn 0.4856 -0.4397 -0.7556
vn 0.6339 -0.7734 -0.0052
vn 0.3554 -0.5738 -0.7378
vn 0.5009 -0.4575 -0.7347
vn 0.7035 -0.7091 -0.0486
vn 0.3767 -0.6320 -0.6773
vn 0.4413 -0.4412 -0.7814
vn 0.3522 -0.5896 -0.7269
vn 0.0985 0.9951 -0.0128
vn -0.0490 0.7248 -0.6872
vn 0.0978 0.9951 -0.0122
vn -0.0478 0.6673 -0.7432
vn 0.0074 0.9995 0.0318
vn -0.0119 0.6836 -0.7298
vn 0.3081 -0.9512 -0.0141
vn 0.3082 -0.9511 -0.0180
vn 0.1786 0.6788 -0.7123
vn 0.1871 0.6886 -0.7006
vn 0.2792 0.9601 0.0148
vn 0.1288 -0.9916 0.0105
vn 0.1134 -0.9570 -0.2669
vn 0.5542 0.8324 -0.0038
vn 0.4714 0.8819 -0.0026
vn 0.4592 0.8883 -0.0060
vn -0.0186 -0.9980 0.0607
vn -0.0089 -0.9995 0.0308
vn -0.1879 -0.9814 0.0405
vn -0.2826 -0.9591 0.0164
vn 0.8288 0.5593 -0.0195
vn 0.7637 0.6455 -0.0067
vn -0.5517 -0.8338 -0.0198
vn 0.9142 0.4049 -0.0148
vn -0.7076 -0.7062 -0.0267
vn -0.6335 -0.7738 0.0023
vn 0.9526 0.3044 -0.0037
vn 0.9505 0.3105 0.0090
vn -0.9930 -0.1175 0.0100
vn -0.9623 0.2715 0.0143
vn -0.9153 0.1792 -0.3606
vn -0.9919 -0.1268 0.0092
vn -0.9816 0.1872 0.0385
vn -0.9980 0.0186 0.0607
vn -0.9567 0.2911 -0.0047
vn -0.9951 0.0987 -0.0101
vn -0.8290 -0.5589 -0.0215
vn -0.7590 -0.6511 0.0091
vn 0.9919 0.1268 0.0092
vn -0.8884 0.4589 -0.0076
vn -0.8696 -0.4932 0.0222
vn -0.8814 -0.4723 0.0019
vn 0.9951 -0.0975 -0.0145
vn 0.6991 0.0422 -0.7138
vn 0.6840 -0.0174 -0.7293
vn -0.7815 0.6234 0.0264
vn 0.6562 -0.0347 -0.7538
vn -0.7735 0.6338 0.0060
vn -0.9512 -0.3081 -0.0141
vn -0.5846 -0.2968 -0.7551
vn -0.6449 -0.2322 -0.7281
vn -0.6510 -0.2390 -0.7205
vn -0.9505 -0.3107 0.0104
vn -0.6002 -0.3018 -0.7407
vn 0.9816 -0.1872 0.0385
vn 0.6722 -0.1449 -0.7260
vn -0.6390 -0.2145 -0.7387
vn 0.6665 -0.0897 -0.7401
vn 0.9561 -0.2907 0.0374
vn 0.7005 -0.1840 -0.6895
vn 0.9623 -0.2695 0.0371
vn 0.6984 -0.0801 -0.7112
vn -0.5098 0.4658 -0.7232
vn -0.6339 0.7734 -0.0039
vn -0.4615 0.5149 -0.7224
vn -0.6508 0.7592 0.0103
vn -0.5031 0.4263 -0.7518
vn -0.4766 0.4319 -0.7657
vn -0.6344 0.7730 -0.0042
vn -0.9173 -0.1775 -0.3565
vn -0.4542 0.4947 -0.7409
vn -0.6969 -0.1843 -0.6930
vn -0.6578 -0.1044 -0.7459
vn -0.7068 -0.1018 -0.7000
vn 0.7174 -0.2552 -0.6483
vn 0.6606 -0.2256 -0.7160
vn 0.8819 -0.4714 -0.0026
vn -0.4444 0.5892 -0.6748
vn 0.6229 -0.2993 -0.7228
vn 0.5877 -0.2708 -0.7624
vn -0.3982 0.5319 -0.7474
vn -0.3576 0.5845 -0.7283
vn -0.3459 0.5823 -0.7357
vn -0.3440 0.5809 -0.7377
vn 0.5988 -0.3507 -0.7200
vn 0.5398 -0.3538 -0.7638
vn 0.5507 -0.4020 -0.7315
vn -0.1603 0.0344 -0.9865
vn -0.1800 -0.0031 -0.9837
vn -0.1224 0.0245 -0.9922
vn -0.1404 -0.0022 -0.9901
vn -0.1644 0.0230 -0.9861
vn -0.1814 0.0012 -0.9834
vn -0.1835 0.0027 -0.9830
vn 0.1429 0.0753 -0.9869
vn 0.1339 0.0349 -0.9904
vn 0.1428 0.0568 -0.9881
vn 0.1794 0.0307 -0.9833
vn 0.1716 0.0744 -0.9824
vn 0.1647 0.0377 -0.9856
vn 0.1704 0.0302 -0.9849
vn 0.1610 0.0714 -0.9844
vn 0.2065 0.0448 -0.9774
vn 0.1506 0.0723 -0.9859
vn 0.0861 -0.1338 -0.9873
vn 0.1005 -0.1089 -0.9890
vn 0.0968 -0.1564 -0.9829
vn 0.1472 -0.1338 -0.9800
vn 0.1013 -0.1487 -0.9837
vn 0.1365 -0.1417 -0.9805
vn 0.1051 -0.1478 -0.9834
vn 0.1253 -0.1254 -0.9842
vn -0.1157 0.0796 -0.9901
vn -0.1086 0.0493 -0.9929
vn -0.1405 0.0982 -0.9852
vn -0.1352 0.0590 -0.9891
vn -0.1353 0.0802 -0.9876
vn -0.1239 0.0601 -0.9905
vn -0.1357 0.0931 -0.9864
vn -0.1549 0.0937 -0.9835
vn 0.0583 -0.1153 -0.9916
vn 0.0365 -0.1556 -0.9871
vn 0.0786 -0.1706 -0.9822
vn 0.0232 -0.1362 -0.9904
vn 0.0557 -0.1288 -0.9901
vn 0.0650 -0.1526 -0.9862
vn 0.0486 -0.1964 -0.9793
vn 0.0569 -0.1302 -0.9899
vn 0.0377 -0.1672 -0.9852
vn 0.0594 -0.1588 -0.9855
vn -0.0863 0.1233 -0.9886
vn -0.1125 0.1179 -0.9866
vn -0.0861 0.1375 -0.9867
vn -0.1309 0.1161 -0.9846
vn -0.1142 0.1215 -0.9860
vn -0.0744 0.1255 -0.9893
vn -0.1095 0.1007 -0.9889
vn -0.1121 0.1656 -0.9798
vn -0.1122 0.1184 -0.9866
vn -0.0320 -0.1551 -0.9874
vn -0.0283 -0.1442 -0.9891
vn 0.0040 -0.1629 -0.9866
vn -0.0182 -0.1514 -0.9883
vn -0.0067 -0.1857 -0.9826
vn 0.3817 -0.9243 -0.0062
vn 0.0835 -0.9907 -0.1076
vn -0.0740 0.1697 -0.9827
vn -0.1465 0.1347 -0.9800
vn 0.0490 -0.2004 -0.9785
vn 0.0795 -0.1720 -0.9819
vn 0.2505 0.0618 -0.9661
vn -0.2004 -0.0490 -0.9785
vn 0.1348 0.1439 -0.9804
vn -0.0469 0.2024 -0.9782
vn -0.1237 -0.1430 -0.9820
vn -0.1744 -0.0800 -0.9814
vn 0.1441 -0.0256 -0.9892
vn 0.0678 -0.2384 -0.9688
vn -0.0544 0.2358 -0.9703
vn -0.1228 0.1469 -0.9815
vn 0.1859 -0.0315 -0.9821
vn 0.1705 0.0449 -0.9843
vn 0.1546 -0.0859 -0.9842
vn 0.1329 0.0953 -0.9865
vn -0.0675 -0.1744 -0.9824
vn -0.1490 0.0939 -0.9844
vn 0.0753 -0.1505 -0.9857
vn -0.1627 0.0698 -0.9842
vn 0.1342 -0.0834 -0.9874
vn 0.1785 0.0391 -0.9832
vn -0.0423 0.1708 -0.9844
vn -0.0859 -0.1462 -0.9855
vn 0.0704 0.1597 -0.9847
vn -0.1582 -0.0753 -0.9845
vn 0.0939 0.1490 -0.9844
vn 0.1802 -0.0373 -0.9829
vn -0.0466 0.1338 -0.9899
vn -0.0889 0.1247 -0.9882
vn -0.0237 -0.1644 -0.9861
vn 0.0634 -0.1870 -0.9803
vn -0.1574 0.0828 -0.9841
vn 0.0843 -0.1004 -0.9914
vn 0.1992 -0.0146 -0.9798
vn 0.1338 0.0466 -0.9899
vn -0.1993 0.0146 -0.9798
vn 0.1574 -0.0828 -0.9841
vn -0.0828 -0.1574 -0.9841
vn 0.0146 0.1992 -0.9798
vn -0.1004 -0.0843 -0.9914
vn 0.0828 0.1574 -0.9841
vn -0.1617 -0.0682 -0.9845
vn 0.1247 0.0889 -0.9882
vn 0.0678 -0.1137 -0.9912
vn -0.1074 0.1370 -0.9847
vn 0.1456 0.1076 -0.9835
vn -0.1334 -0.0941 -0.9866
vn -0.0680 0.0915 -0.9935
vn -0.1898 0.0837 -0.9782
vn 0.0857 0.0190 -0.9961
vn 0.0943 0.0674 -0.9933
vn -0.1390 0.0099 -0.9902
vn -0.0811 -0.1860 -0.9792
vn 0.0149 0.1135 -0.9934
vn -0.1497 -0.0394 -0.9879
vn 0.0995 -0.0238 -0.9948
vn 0.8774 -0.4794 -0.0156
vn 0.6323 -0.7745 -0.0146
vn 0.0197 0.0953 -0.9953
vn -0.4794 -0.8774 -0.0156
vn -0.7745 -0.6323 -0.0146
vn 0.7741 0.6329 -0.0147
vn 0.8814 -0.4723 -0.0041
vn 0.8825 -0.4703 -0.0041
vn 0.6354 -0.7722 -0.0041
vn 0.6336 -0.7736 -0.0041
vn -0.9572 -0.2893 -0.0041
vn -0.9566 -0.2915 -0.0041
vn -0.9941 0.1081 -0.0052
vn -0.9939 0.1105 -0.0052
vn 0.9958 -0.0919 -0.0049
vn 0.9960 -0.0895 -0.0049
vn -0.3753 0.9268 -0.0125
vn -0.7736 -0.6336 -0.0041
vn -0.7722 -0.6354 -0.0041
vn -0.4723 -0.8814 -0.0041
vn -0.4703 -0.8825 -0.0041
vn -0.0990 -0.9951 -0.0041
vn -0.0968 -0.9953 -0.0041
vn 0.2893 -0.9572 -0.0041
vn 0.2915 -0.9566 -0.0041
vn 0.0982 0.9951 -0.0075
vn 0.0085 1.0000 0.0004
vn -0.8804 -0.4742 -0.0042
vn -0.8792 -0.4764 -0.0042
vn -0.9964 -0.0839 -0.0075
vn 0.7723 -0.6352 -0.0082
vn -0.6352 -0.7723 -0.0082
vn 0.9964 0.0839 -0.0075
vn 0.8804 0.4742 -0.0042
vn 0.8792 0.4764 -0.0042
vn 0.6352 0.7723 -0.0082
vn 0.4742 -0.8804 -0.0042
vn 0.4764 -0.8792 -0.0042
vn 0.0839 -0.9964 -0.0075
vn 0.8815 -0.4721 -0.0081
vn 0.8825 -0.4702 -0.0081
vn 0.6354 -0.7721 -0.0081
vn 0.6337 -0.7735 -0.0081
vn -0.6337 0.7735 -0.0081
vn -0.6354 0.7721 -0.0081
vn -0.2916 0.9565 -0.0081
vn -0.2895 0.9571 -0.0081
vn -0.9571 -0.2895 -0.0081
vn -0.9565 -0.2916 -0.0081
vn -0.9953 0.0967 -0.0081
vn -0.9951 0.0988 -0.0081
vn 0.9951 -0.0988 -0.0081
vn 0.9953 -0.0967 -0.0081
vn -0.8815 0.4721 -0.0081
vn -0.8825 0.4702 -0.0081
vn -0.7735 -0.6337 -0.0081
vn -0.7721 -0.6354 -0.0081
vn 0.9571 0.2895 -0.0081
vn 0.9565 0.2916 -0.0081
vn -0.4721 -0.8815 -0.0081
vn -0.4702 -0.8825 -0.0081
vn 0.7735 0.6337 -0.0081
vn 0.7721 0.6354 -0.0081
vn -0.0988 -0.9951 -0.0081
vn -0.0967 -0.9953 -0.0081
vn 0.4721 0.8815 -0.0081
vn 0.4702 0.8825 -0.0081
vn 0.2895 -0.9571 -0.0081
vn 0.2916 -0.9565 -0.0081
vn 0.0988 0.9951 -0.0081
vn 0.0967 0.9953 -0.0081
vn -0.8842 -0.4669 -0.0118
vn -0.8831 -0.4690 -0.0118
vn 0.4669 -0.8842 -0.0118
vn 0.4690 -0.8831 -0.0118
vn 0.9554 -0.2950 -0.0123
vn 0.9961 0.0876 -0.0131
vn -0.2950 -0.9554 -0.0123
vn 0.0876 -0.9961 -0.0131
vn 0.2950 0.9554 -0.0123
vn -0.0876 0.9961 -0.0131
vn -0.4540 0.8907 -0.0230
vn -0.4757 0.8793 -0.0240
vn -0.1011 0.9939 -0.0441
vn 0.1226 -0.9922 -0.0210
vn 0.0978 -0.9950 -0.0222
vn -0.2785 -0.9600 -0.0298
vn -0.3010 -0.9532 -0.0295
vn -0.6338 -0.7729 -0.0296
vn -0.9957 -0.0859 -0.0344
vn -0.9934 -0.1093 -0.0347
vn -0.9598 0.2788 -0.0321
vn -0.9530 0.3013 -0.0321
vn -0.8816 -0.4708 -0.0345
vn -0.7801 0.6248 -0.0321
vn -0.7651 0.6431 -0.0321
vn -0.4789 0.8778 -0.0131
vn -0.4808 0.8767 -0.0131
vn -0.0995 0.9949 -0.0139
vn -0.0974 0.9951 -0.0139
vn 0.7726 -0.6348 -0.0139
vn 0.7739 -0.6331 -0.0139
vn 0.4650 -0.8852 -0.0147
vn 0.4630 -0.8862 -0.0147
vn 0.2888 0.9573 -0.0139
vn 0.2908 0.9567 -0.0139
vn 0.6331 0.7739 -0.0139
vn 0.6348 0.7726 -0.0139
vn 0.8811 0.4727 -0.0139
vn 0.8821 0.4708 -0.0139
vn 0.9949 0.0995 -0.0139
vn 0.9951 0.0974 -0.0139
vn -0.9640 -0.2656 -0.0164
vn -0.8158 0.5782 -0.0117
vn -0.7804 0.6250 -0.0161
vn 0.9573 -0.2888 -0.0139
vn 0.9567 -0.2908 -0.0139
vn 0.6474 -0.6254 -0.4355
vn 0.6555 -0.3436 -0.6725
vn 0.8843 -0.4663 -0.0226
vn 0.7326 -0.0977 -0.6737
vn 0.9971 -0.0661 -0.0367
vn 0.9436 0.3258 -0.0584
vn -0.7264 -0.6776 -0.1153
vn 0.5711 0.4659 -0.6758
vn 0.7736 0.6312 -0.0558
vn 0.4655 0.8837 -0.0482
vn 0.0801 0.7409 -0.6668
vn 0.1065 0.9939 -0.0280
vn 0.9133 -0.4066 -0.0234
vn 0.9938 -0.1103 0.0154
vn 0.9938 -0.1101 0.0153
vn 0.7877 -0.5997 -0.1411
vn 0.5721 -0.8069 0.1471
vn 0.9566 0.2902 -0.0282
vn 0.7727 0.6341 -0.0282
vn 0.4628 0.8864 -0.0023
vn -0.1255 -0.9860 -0.1102
vn 0.0905 -0.9943 0.0558
vn 0.3339 -0.9331 -0.1336
vn 0.9568 -0.2903 -0.0156
vn 0.7006 -0.1439 -0.6989
vn -0.1321 0.7006 -0.7013
vn 0.6781 0.1428 -0.7209
vn 0.1321 -0.7006 -0.7013
vn 0.0980 -0.9951 -0.0156
vn 0.9951 0.0980 -0.0156
vn -0.0980 0.9951 -0.0156
s 1
usemtl Base
f 184//1 272//1 171//1
f 184//1 535//1 272//1
f 181//1 535//1 184//1
f 179//1 533//1 181//1
f 176//1 531//1 179//1
f 176//1 528//1 531//1
s 2
f 226//1 570//1 573//1
s 1
f 174//1 528//1 176//1
f 171//1 527//1 175//1
s 2
f 224//1 570//1 226//1
f 219//1 569//1 290//1
f 222//1 568//1 224//1
f 221//1 564//1 567//1
f 218//1 564//1 221//1
s 3
f 284//2 304//3 285//4
s 4
f 525//5 317//6 305//7
s 5
f 586//8 324//9 312//10
s 3
f 536//11 328//12 316//13
f 535//14 334//15 322//16
s 4
f 523//17 335//18 323//19
s 6
f 547//20 339//21 327//22
s 4
f 523//17 347//23 335//18
s 7
f 573//24 349//25 337//26
s 5
f 584//27 354//28 342//29
s 3
f 533//30 358//31 346//32
s 6
f 544//33 363//34 351//35
s 4
f 521//36 365//37 353//38
s 8
f 557//39 368//40 356//41
s 6
f 545//42 369//43 357//44
s 3
f 532//45 376//46 364//47
s 7
f 571//48 379//49 367//50
s 3
f 296//51 394//52 297//53
s 6
f 542//54 399//55 381//56
s 3
f 530//57 406//58 388//59
s 4
f 518//60 407//61 389//62
s 8
f 554//63 410//64 392//65
s 4
f 518//60 425//66 407//61
s 7
f 567//67 427//68 409//69
s 6
f 541//70 429//71 411//72
s 5
f 578//73 438//74 420//75
s 6
f 540//76 441//77 423//78
s 3
f 528//79 454//80 436//81
f 526//82 466//83 448//84
s 4
f 298//85 299//86 455//87
s 7
f 563//88 469//89 457//90
s 6
f 537//91 471//92 459//93
s 4
f 274//94 275//95 473//96
s 9
f 243//1 586//1 276//1
f 243//1 276//1 231//1
s 10
f 195//1 545//1 197//1
f 198//1 547//1 200//1
s 11
f 201//1 550//1 204//1
f 205//1 552//1 206//1
f 203//1 551//1 554//1
f 206//1 552//1 555//1
f 203//1 554//1 208//1
f 206//1 555//1 209//1
f 209//1 555//1 557//1
f 210//1 556//1 558//1
f 209//1 557//1 211//1
f 210//1 558//1 212//1
f 212//1 559//1 214//1
f 213//1 561//1 215//1
f 215//1 561//1 268//1
s 12
f 161//1 518//1 164//1
s 11
f 215//1 268//1 201//1
s 12
f 164//1 521//1 166//1
s 13
f 18//97 591//98 19//99
f 13//100 587//101 14//102
f 19//99 592//103 20//104
f 14//102 588//105 15//106
f 23//107 597//108 13//100
f 20//104 593//109 594//110
f 15//106 589//111 16//112
f 20//104 594//110 21//113
f 21//113 594//110 595//114
f 16//112 590//115 17//116
f 17//116 590//115 18//97
s 4
f 40//117 635//118 638//119
f 98//120 631//121 628//122
f 78//123 623//124 621//125
f 51//126 615//127 633//128
s 3
f 38//129 667//130 670//131
f 30//132 666//133 669//134
f 92//135 661//136 660//137
f 79//138 657//139 655//140
f 82//141 656//142 654//143
f 63//144 652//145 648//146
s 6
f 106//147 707//148 695//149
f 110//150 706//151 708//152
f 64//153 680//154 677//155
f 57//156 678//157 697//158
s 7
f 103//159 772//160 757//161
f 25//162 765//163 767//164
f 55//165 741//166 762//167
f 88//168 756//169 754//170
f 90//171 755//172 753//173
f 73//174 751//175 749//176
f 43//177 747//178 746//179
f 53//180 743//181 760//182
s 5
f 104//183 802//184 804//185
f 24//186 801//187 803//188
f 33//189 795//190 798//191
f 84//192 785//193 783//194
f 81//195 784//196 782//197
f 68//198 778//199 775//200
f 61//201 776//202 773//203
s 14
f 23//204 258//205 22//206
f 21//207 256//208 20//209
f 20//209 254//210 19//211
f 19//211 254//210 251//212
f 18//213 251//212 17//214
f 15//215 247//216 14//217
s 9
f 239//1 581//1 583//1
s 10
f 538//1 188//1 187//1 282//1
s 9
f 239//1 237//1 581//1
f 236//1 580//1 288//1
s 10
f 270//1 537//1 186//1 185//1
s 9
f 238//1 235//1 582//1
s 4
f 431//395 633//128 615//127 413//396
s 3
f 412//397 430//398 664//399 647//400
s 6
f 411//72 429//71 696//401 679//402
s 9
f 235//1 579//1 582//1
f 578//1 581//1 237//1 234//1
s 8
f 410//64 428//403 728//404 711//405
s 9
f 580//1 236//1 233//1 577//1
s 7
f 409//69 427//68 760//182 743//181
s 5
f 426//406 773//203 776//202 408//407
s 9
f 235//1 232//1 579//1
f 265//1 578//1 234//1 230//1
f 232//1 288//1 579//1
f 577//1 233//1 231//1 276//1
s 4
f 401//408 419//409 614//410 617//411
s 9
f 232//1 236//1 288//1
s 3
f 418//412 646//413 649//414 400//415
s 6
f 399//55 417//416 678//157 681//417
s 9
f 230//1 244//1 265//1
s 8
f 416//418 710//419 713//420 398//421
s 7
f 415//422 742//423 745//424 397//425
s 5
f 414//426 775//200 778//199 396//427
s 4
f 407//61 616//428 620//429 389//62
s 3
f 406//58 648//146 652//145 388//59
s 6
f 405//430 680//154 684//431 387//432
s 8
f 404//433 712//434 716//435 386//436
s 7
f 403//437 744//438 748//439 385//440
s 5
f 402//441 777//442 781//443 384//444
s 1
f 284//1 172//1 183//1 536//1
s 4
f 395//445 618//446 619//447 299//86
s 3
f 394//52 650//448 651//449 297//53
s 6
f 393//450 682//451 683//452 295//453
s 1
f 536//1 183//1 182//1 534//1
s 8
f 392//65 714//454 715//455 293//456
s 7
f 291//457 391//458 746//179 747//178
s 1
f 181//1 533//1 535//1
s 5
f 289//459 390//385 779//384 780//460
s 1
f 534//1 182//1 180//1 532//1
f 532//1 180//1 178//1 530//1
f 179//1 531//1 533//1
s 4
f 383//461 621//125 623//124 371//462
s 2
f 575//1 278//1 218//1 229//1
s 3
f 370//463 382//464 653//465 655//140
s 6
f 369//43 381//56 685//466 687//467
s 2
f 216//1 228//1 576//1
s 1
f 529//1 296//1 174//1 177//1
s 8
f 368//40 380//468 717//469 719//470
s 7
f 367//50 379//49 749//176 751//175
s 2
f 228//1 574//1 576//1
f 573//1 575//1 229//1 226//1
s 1
f 178//1 175//1 530//1
s 5
f 378//471 782//197 784//196 366//472
s 4
f 377//473 622//474 624//475 365//37
s 2
f 228//1 227//1 574//1
s 3
f 376//46 654//143 656//142 364//476
s 6
f 375//477 686//478 688//479 363//34
s 1
f 175//1 527//1 530//1
s 2
f 227//1 572//1 574//1
s 1
f 526//1 529//1 177//1 173//1
s 8
f 374//480 718//481 720//482 362//483
s 2
f 571//1 572//1 227//1 225//1
s 7
f 361//484 373//485 750//486 752//487
s 5
f 372//488 783//194 785//193 360//489
s 1
f 526//1 173//1 172//1 284//1
f 174//1 296//1 528//1
f 171//1 272//1 527//1
s 2
f 566//1 571//1 225//1 223//1
f 567//1 569//1 219//1 221//1
f 224//1 568//1 570//1
s 4
f 359//490 625//491 627//492 347//23
s 2
f 223//1 220//1 566//1
f 222//1 565//1 568//1
f 220//1 290//1 566//1
f 563//1 565//1 222//1 217//1
s 3
f 358//31 657//139 659//493 346//32
s 6
f 357//44 689//494 691//495 345//496
s 8
f 356//41 721//497 723//498 344//499
s 2
f 220//1 219//1 290//1
s 7
f 343//500 355//501 753//173 755//172
s 5
f 354//28 786//502 788//503 342//29
s 2
f 218//1 278//1 564//1
f 576//1 563//1 217//1 216//1
s 4
f 353//38 626//504 628//122 341//505
s 3
f 352//506 658//381 660//137 340//507
s 6
f 339//21 351//35 690//508 692//509
s 8
f 338//510 350//511 722//512 724//513
s 7
f 337//26 349//25 754//170 756//169
s 5
f 336//514 348//515 787//516 789//517
s 4
f 335//18 629//518 630//519 323//19
s 12
f 525//1 286//1 156//1 170//1
s 3
f 334//15 662//520 663//521 322//16
s 6
f 333//522 694//523 695//149 321//524
s 12
f 155//1 169//1 274//1
s 8
f 332//525 726//526 727//527 320//528
s 7
f 331//529 758//530 759//531 319//532
s 12
f 169//1 523//1 274//1
f 525//1 170//1 168//1 524//1
s 5
f 318//533 330//388 791//387 792//534
s 4
f 329//535 631//121 632//536 317//6
s 12
f 169//1 167//1 523//1
s 4
f 305//7 287//537 286//538 525//5
s 5
f 276//539 300//540 277//541
s 7
f 278//542 301//543 279//544
s 8
f 280//545 302//546 281//547
s 6
f 282//548 303//549 283//550
s 5
f 266//551 265//552 585//553 306//554
f 300//540 276//539 586//8 312//10
s 7
f 576//555 307//556 267//557
s 8
f 268//558 308//559 269//560
s 6
f 270//561 309//562 271//563
s 3
f 272//564 310//565 273//566
s 4
f 274//94 311//567 275//95
s 7
f 301//543 278//542 575//568 313//569
s 8
f 302//546 280//545 562//570 314//571
s 6
f 303//549 282//548 549//572 315//573
s 3
f 316//13 304//3 284//2 536//11
s 8
f 308//559 268//558 561//574 320//528
s 5
f 585//553 318//533 306//554
s 7
f 576//555 319//532 307//556
s 6
f 309//562 270//561 548//575 321//524
s 3
f 322//16 310//565 272//564 535//14
s 4
f 311//567 274//94 523//17 323//19
s 6
f 327//22 315//573 549//572 547//20
s 7
f 575//568 325//576 313//569
s 8
f 562//570 326//577 314//571
s 4
f 317//6 525//5 524//578 329//535
s 7
f 319//532 576//555 574//579 331//529
s 5
f 585//553 330//580 318//533
f 336//514 324//9 586//8 583//581
s 8
f 561//574 332//525 320//528
s 6
f 548//575 333//522 321//524
s 7
f 337//26 325//576 575//568 573//24
s 8
f 338//510 326//577 562//570 559//582
s 3
f 328//12 536//11 534//583 340//507
s 5
f 330//580 585//553 584//27 342//29
s 4
f 524//578 341//505 329//535
s 8
f 332//525 561//574 560//584 344//499
s 7
f 574//579 343//500 331//529
s 6
f 333//522 548//575 546//585 345//496
s 3
f 346//32 334//15 535//14 533//30
s 6
f 351//35 339//21 547//20 544//33
s 5
f 583//581 348//515 336//514
s 8
f 559//582 350//511 338//510
s 4
f 341//505 524//578 521//36 353//38
s 3
f 534//583 352//506 340//507
s 7
f 343//500 574//579 572//586 355//501
s 8
f 356//41 344//499 560//584 557//39
s 6
f 357//44 345//496 546//585 545//42
s 4
f 347//23 523//17 522//587 359//490
s 7
f 361//484 349//25 573//24 570//588
s 5
f 583//581 360//489 348//515
s 8
f 350//511 559//582 558//589 362//483
s 3
f 352//506 534//583 532//45 364//47
s 5
f 366//472 354//28 584//27 582//590
s 7
f 367//50 355//501 572//586 571//48
s 5
f 360//489 583//581 581//591 372//488
s 3
f 533//30 370//463 358//31
s 4
f 522//587 371//462 359//490
s 6
f 381//56 369//43 545//42 542//54
s 7
f 570//588 373//485 361//484
s 8
f 558//589 374//480 362//483
s 6
f 544//33 375//477 363//34
s 4
f 521//36 377//473 365//37
s 5
f 582//590 378//471 366//472
s 8
f 557//39 380//468 368//40
s 3
f 370//463 533//30 531//592 382//464
s 4
f 383//461 371//462 522//587 520//593
s 8
f 374//480 558//589 556//594 386//436
s 5
f 581//591 384//444 372//488
s 7
f 570//588 385//440 373//485
s 6
f 375//477 544//33 543//595 387//432
s 3
f 388//59 376//46 532//45 530//57
s 4
f 377//473 521//36 518//60 389//62
s 5
f 289//459 288//596 580//597 390//598
s 7
f 291//457 290//599 569//600 391//458
s 8
f 392//65 293//456 292//601 554//63
s 4
f 299//86 298//85 519//602 395//445
s 6
f 294//603 393//450 295//453
s 7
f 397//425 379//49 571//48 566//604
s 5
f 582//590 396//427 378//471
s 8
f 380//468 557//39 555//605 398//421
s 7
f 385//440 570//588 568//606 403//437
s 3
f 531//592 400//415 382//464
s 4
f 520//593 401//408 383//461
s 5
f 581//591 402//441 384//444
s 7
f 409//69 391//458 569//600 567//67
s 8
f 556//594 404//433 386//436
s 6
f 543//595 405//430 387//432
s 5
f 580//597 408//407 390//598
s 6
f 411//72 393//450 294//603 541//70
s 3
f 394//52 296//51 529//607 412//397
s 5
f 396//427 582//590 579//608 414//426
s 4
f 519//602 413//396 395//445
f 401//408 520//593 517//609 419//409
s 7
f 566//604 415//422 397//425
s 8
f 555//605 416//418 398//421
s 6
f 542//54 417//416 399//55
s 3
f 531//592 418//412 400//415
s 5
f 402//441 581//591 578//73 420//75
s 8
f 404//433 556//594 553//610 422//611
s 7
f 568//606 421//612 403//437
s 6
f 405//430 543//595 540//76 423//78
s 5
f 408//407 580//597 577//613 426//406
s 3
f 530//57 424//614 406//58
s 4
f 431//395 413//396 519//602 516//615
s 8
f 554//63 428//403 410//64
s 3
f 529//607 430//398 412//397
s 8
f 416//418 555//605 552//616 434//617
s 5
f 579//608 432//618 414//426
s 7
f 566//604 433//619 415//422
s 6
f 417//416 542//54 539//620 435//621
s 3
f 436//81 418//412 531//592 528//79
s 7
f 421//612 568//606 565//622 439//623
s 4
f 517//609 437//624 419//409
s 3
f 442//625 424//614 530//57 527//626
s 8
f 553//610 440//627 422//611
s 4
f 425//66 518//60 515//628 443//629
s 7
f 445//630 427//68 567//67 564//631
s 5
f 577//613 444//632 426//406
s 8
f 428//403 554//63 551//633 446//634
s 6
f 447//635 429//71 541//70 538//636
s 3
f 430//398 529//607 526//82 448//84
s 5
f 432//618 579//608 288//596 450//637
s 4
f 516//615 449//638 431//395
s 7
f 433//619 566//604 290//599 451//639
s 4
f 455//87 437//624 517//609 298//85
s 8
f 552//616 452//640 434//617
s 6
f 539//620 453//641 435//621
s 5
f 456//642 438//74 578//73 265//552
s 7
f 457//90 439//623 565//622 563//88
s 8
f 458//643 440//627 553//610 550//644
s 6
f 459//93 441//77 540//76 537//91
s 5
f 444//632 577//613 276//539 462//645
s 3
f 527//626 460//646 442//625
s 4
f 515//628 461//647 443//629
f 449//638 516//615 286//538 467//648
s 7
f 564//631 463//649 445//630
s 8
f 551//633 464//650 446//634
s 6
f 538//636 465//651 447//635
s 8
f 452//640 552//616 292//601 293//456
s 5
f 288//596 289//459 450//637
s 7
f 290//599 291//457 451//639
s 6
f 453//641 539//620 294//603 295//453
s 3
f 297//53 454//80 528//79 296//51
f 460//646 527//626 272//564 472//652
s 5
f 265//552 468//653 456//642
s 8
f 550//644 470//654 458//643
s 4
f 461//647 515//628 274//94 473//96
s 7
f 463//649 564//631 278//542 279//544
s 5
f 276//539 277//541 462//645
s 8
f 464//650 551//633 280//545 281//547
s 6
f 465//651 538//636 282//548 283//550
s 3
f 466//83 526//82 284//2 285//4
s 7
f 267//557 469//89 563//88 576//555
s 4
f 286//538 287//537 467//648
s 5
f 265//552 266//551 468//653
s 8
f 470//654 550//644 268//558 269//560
s 6
f 271//563 471//92 537//91 270//561
s 10
f 540//1 191//1 186//1 537//1
s 3
f 272//564 273//566 472//652
s 9
f 582//1 584//1 240//1 238//1
s 5
f 438//74 794//655 774//656 420//75
s 10
f 538//1 541//1 192//1 188//1
s 9
f 241//1 239//1 583//1
s 7
f 421//612 439//623 762//167 741//166
s 8
f 440//627 730//657 709//658 422//611
s 10
f 539//1 542//1 193//1 190//1
s 6
f 441//77 698//659 677//155 423//78
s 9
f 584//1 585//1 242//1 240//1
s 3
f 442//625 666//133 645//660 424//614
s 9
f 583//1 586//1 243//1 241//1
s 10
f 543//1 194//1 191//1 540//1
s 4
f 443//629 635//118 613//661 425//66
s 10
f 294//1 189//1 192//1 541//1
f 543//1 544//1 196//1 194//1
s 9
f 244//1 242//1 585//1
s 10
f 195//1 193//1 542//1
s 9
f 244//1 585//1 265//1
s 5
f 432//618 450//391 796//390 793//662
s 10
f 195//1 542//1 545//1
s 7
f 451//639 764//663 761//664 433//619
s 8
f 452//640 732//665 729//666 434//617
s 6
f 453//641 700//667 697//158 435//621
s 10
f 198//1 196//1 544//1
s 3
f 454//80 668//668 665//669 436//81
s 10
f 197//1 545//1 546//1
s 4
f 455//87 637//670 634//671 437//624
s 10
f 198//1 544//1 547//1
f 548//1 199//1 197//1 546//1
f 548//1 270//1 185//1 199//1
f 200//1 547//1 549//1
f 282//1 187//1 200//1 549//1
s 5
f 462//645 798//191 795//190 444//632
s 7
f 445//630 463//649 766//672 763//673
s 8
f 464//650 734//674 731//675 446//634
s 6
f 465//651 702//676 699//677 447//635
s 3
f 466//83 670//131 667//130 448//84
s 4
f 467//648 639//678 636//679 449//638
s 5
f 456//642 468//653 799//680 797//681
s 7
f 457//90 469//89 767//164 765//163
s 8
f 458//643 470//654 735//682 733//683
s 6
f 459//93 471//92 703//684 701//685
s 3
f 472//652 671//686 669//134 460//646
s 4
f 473//96 640//687 638//119 461//647
s 11
f 551//1 203//1 202//1 280//1
f 201//1 268//1 550//1
s 5
f 277//541 300//393 802//184 800//688
s 11
f 205//1 292//1 552//1
f 204//1 550//1 553//1
f 207//1 204//1 553//1
s 7
f 301//543 770//689 768//690 279//544
s 11
f 207//1 553//1 556//1
s 8
f 302//546 738//691 736//692 281//547
s 6
f 303//549 706//151 704//693 283//550
s 3
f 304//3 674//694 672//695 285//4
s 11
f 210//1 207//1 556//1
s 4
f 305//7 643//696 641//697 287//537
s 11
f 554//1 292//1 205//1 208//1
s 12
f 274//1 515//1 157//1 155//1
s 5
f 306//554 803//188 801//187 266//551
s 7
f 307//556 771//698 769//699 267//557
s 12
f 516//1 159//1 156//1 286//1
s 8
f 308//559 739//700 737//701 269//560
s 6
f 271//563 309//562 707//148 705//702
s 12
f 298//1 517//1 160//1 158//1
s 3
f 310//565 675//703 673//704 273//566
s 4
f 275//95 311//567 644//705 642//706
s 11
f 212//1 558//1 559//1
f 557//1 560//1 213//1 211//1
s 12
f 518//1 161//1 157//1 515//1
f 516//1 519//1 162//1 159//1
s 11
f 213//1 560//1 561//1
s 12
f 517//1 520//1 163//1 160//1
s 11
f 214//1 559//1 562//1
s 12
f 519//1 298//1 158//1 162//1
s 11
f 202//1 214//1 562//1
f 202//1 562//1 280//1
s 12
f 520//1 522//1 165//1 163//1
f 164//1 518//1 521//1
s 5
f 324//9 790//707 804//185 312//10
s 7
f 313//569 325//576 757//161 772//160
s 12
f 523//1 167//1 165//1 522//1
s 8
f 326//577 725//708 740//709 314//571
s 12
f 521//1 524//1 168//1 166//1
s 6
f 327//22 693//710 708//152 315//573
s 3
f 328//12 661//136 676//711 316//13
s 13
f 596//712 597//108 23//107 22//713
f 19//99 591//98 592//103
f 14//102 587//101 588//105
f 20//104 592//103 593//109
f 15//106 588//105 589//111
f 13//100 597//108 587//101
f 16//112 589//111 590//115
f 22//713 21//113 595//114
f 22//713 595//114 596//712
f 18//97 590//115 591//98
s 4
f 644//705 105//714 29//715 642//706
f 105//714 644//705 630//519
f 108//716 643//696 632//536
f 643//696 108//716 37//717 641//697
f 638//119 640//687 29//715 40//117
f 29//715 640//687 642//706
f 37//717 639//678 641//697
f 639//678 37//717 51//126 636//679
f 47//718 637//670 619//447
f 635//118 40//117 62//719 613//661
f 47//718 634//671 637//670
f 51//126 633//128 636//679
f 634//671 47//718 65//720 614//410
f 631//121 98//120 108//716 632//536
f 629//518 95//721 105//714 630//519
f 628//122 626//504 86//722 98//120
f 95//721 629//518 627//492
f 625//491 78//123 95//721 627//492
f 622//474 75//723 86//722 624//475
f 86//722 626//504 624//475
f 78//123 625//491 623//124
f 618//446 74//724 47//718 619//447
f 75//723 622//474 620//429
f 617//411 65//720 78//123 621//125
f 616//428 62//719 75//723 620//429
f 615//127 51//126 74//724 618//446
s 3
f 676//711 661//136 92//135 109//725
s 4
f 65//720 617//411 614//410
f 62//719 616//428 613//661
s 3
f 675//703 663//521 96//726 28//727
f 673//704 28//727 30//132 671//686
f 109//725 674//694 676//711
f 28//727 673//704 675//703
f 109//725 672//695 674//694
f 670//131 672//695 109//725 38//129
f 668//668 651//449 46//728 48//729
f 30//132 669//134 671//686
f 667//130 38//129 59//730 664//399
f 48//729 665//669 668//668
f 666//133 30//132 63//144 645//660
f 659//493 657//139 79//138 96//726
f 96//726 663//521 662//520
f 96//726 662//520 659//493
f 92//135 660//137 658//381
f 656//142 82//141 92//135 658//381
f 654//143 652//145 63//144 82//141
f 79//138 655//140 653//465
f 649//414 66//731 79//138 653//465
f 46//728 651//449 650//448
f 647//400 59//730 46//728 650//448
f 646//413 665//669 48//729 66//731
f 66//731 649//414 646//413
f 63//144 648//146 645//660
f 59//730 647//400 664//399
s 6
f 693//710 99//732 110//150 708//152
f 705//702 707//148 106//147 27//733
f 706//151 110//150 36//734 704//693
f 703//684 27//733 41//735 701//685
f 27//733 703//684 705//702
f 36//734 702//676 704//693
f 699//677 702//676 36//734 52//736
f 45//737 700//667 683//452
f 700//667 45//737 57//156 697//158
f 41//735 698//659 701//685
f 698//659 41//735 64//153 677//155
f 52//736 696//401 699//677
f 694//523 97//738 106//147 695//149
f 690//508 87//739 99//732 692//509
f 99//732 693//710 692//509
f 97//738 694//523 691//495
f 689//494 85//740 97//738 691//495
f 688//479 686//478 76//741 87//739
f 87//739 690//508 688//479
f 85//740 689//494 687//467
f 685//466 72//742 85//740 687//467
f 682//451 69//743 45//737 683//452
f 76//741 686//478 684//431
f 680//154 64//153 76//741 684//431
f 72//742 685//466 681//417
f 681//417 678//157 57//156 72//742
f 69//743 682//451 679//402
f 696//401 52//736 69//743 679//402
s 8
f 739//700 727//527 100//744 26//745
f 102//746 740//709 725//708
f 738//691 740//709 102//746 35//747
f 737//701 26//745 31//748 735//682
f 26//745 737//701 739//700
f 35//747 736//692 738//691
f 734//674 736//692 35//747 39//749
f 732//665 715//455 44//750 49//751
f 31//748 733//683 735//682
f 730//657 733//683 31//748 54//752
f 39//749 731//675 734//674
f 731//675 39//749 60//753 728//404
f 49//751 729//666 732//665
f 725//708 724//513 93//754 102//746
f 54//752 709//658 730//657
f 100//744 727//527 726//526
f 726//526 723//498 89//755 100//744
f 720//482 83//756 93//754 722//512
f 93//754 724//513 722//512
f 89//755 723//498 721//497
f 721//497 719//470 80//757 89//755
f 718//481 716//435 70//758 83//756
f 83//756 720//482 718//481
f 80//757 719//470 717//469
f 713//420 67//759 80//757 717//469
f 44//750 715//455 714//454
f 714//454 711//405 60//753 44//750
f 70//758 716//435 712//434
f 712//434 709//658 54//752 70//758
f 67//759 713//420 710//419
f 710//419 729//666 49//751 67//759
f 60//753 711//405 728//404
s 7
f 772//160 103//159 34//760 770//689
f 107//761 771//698 759//531
f 769//699 771//698 107//761 25//162
f 763//673 766//672 34//760 53//180
f 34//760 768//690 770//689
f 25//162 767//164 769//699
f 34//760 766//672 768//690
f 43//177 764//663 747//178
f 765//163 25//162 55//165 762//167
f 764//663 43//177 58//762 761//664
f 758//530 90//171 107//761 759//531
f 53//180 760//182 763//673
f 756//169 88//168 103//159 757//161
f 751//175 73//174 90//171 753//173
f 90//171 758//530 755//172
f 88//168 754//170 752//487
f 752//487 750//486 77//763 88//168
f 748//439 744//438 55//165 77//763
f 77//763 750//486 748//439
f 73//174 749//176 745//424
f 743//181 53//180 43//177 746//179
f 745//424 742//423 58//762 73//174
s 5
f 803//188 792//534 101//764 24//186
s 7
f 55//165 744//438 741//166
f 58//762 742//423 761//664
s 5
f 104//183 804//185 790//707
f 802//184 104//183 33//189 800//688
f 801//187 24//186 32//765 799//680
f 796//390 780//460 42//766 50//767
f 33//189 798//191 800//688
f 32//765 797//681 799//680
f 794//655 797//681 32//765 56//768
f 795//190 33//189 61//201 773//203
f 50//767 793//662 796//390
f 790//707 789//517 94//769 104//183
f 56//768 774//656 794//655
f 101//764 792//534 791//387
f 791//387 788//503 91//770 101//764
f 785//193 84//192 94//769 787//516
f 94//769 789//517 787//516
f 91//770 788//503 786//502
f 786//502 784//196 81//195 91//770
f 781//443 71//771 84//192 783//194
f 778//199 68//198 81//195 782//197
f 42//766 780//460 779//384
f 779//384 776//202 61//201 42//766
f 71//771 781//443 777//442
f 777//442 774//656 56//768 71//771
f 775//200 793//662 50//767 68//198
s 14
f 258//205 256//208 21//207 22//206
f 13//772 245//338 260//364
f 23//204 13//772 260//364
f 23//204 260//364 258//205
f 20//209 256//208 254//210
f 18//213 19//211 251//212
f 17//214 251//212 249//346
f 16//775 17//214 249//346
f 16//775 249//346 247//216
f 15//215 16//775 247//216
f 14//217 247//216 245//338
f 13//772 14//217 245//338
s 10
f 539//1 190//1 189//1 294//1
s 15
usemtl Aquamarin
f 10//218 231//219 11//220
f 1//221 232//222 2//223
f 11//220 233//224 12//225
f 6//226 234//227 7//228
f 7//228 237//229 8//230
f 12//225 236//231 1//221
f 3//232 240//233 4//234
f 9//235 241//236 243//237
f 4//234 242//238 5//239
f 9//235 243//237 10//218
f 10//218 243//237 231//219
f 230//773 6//226 5//239 244//774
f 238//776 3//232 2//223 235//777
f 1//221 236//231 232//222
f 11//220 231//219 233//224
f 6//226 230//773 234//227
f 2//223 232//222 235//777
f 12//225 233//224 236//231
f 7//228 234//227 237//229
f 241//236 9//235 8//230 239//778
f 8//230 237//229 239//778
f 3//232 238//776 240//233
f 4//234 240//233 242//238
f 5//239 242//238 244//774
s 16
usemtl Rot
f 33//240 221//241 61//242
f 71//243 224//244 84//245
f 84//245 226//246 94//247
f 217//779 32//780 24//781 216//782
f 220//783 50//784 42//785 219//786
f 222//787 56//788 32//780 217//779
f 33//240 218//789 221//241
f 223//790 68//791 50//784 220//783
f 224//244 71//243 56//788 222//787
f 219//786 42//785 61//242 221//241
f 225//792 81//793 68//791 223//790
f 227//794 91//795 81//793 225//792
f 84//245 224//244 226//246
f 228//796 101//797 91//795 227//794
f 229//798 104//799 94//247 226//246
f 216//782 24//781 101//797 228//796
f 104//799 229//798 218//789
f 33//240 104//799 218//789
s 17
usemtl Gruen
f 34//248 202//249 203//250
f 34//248 203//250 53//251
f 25//252 204//253 55//254
f 53//251 208//255 43//256
f 73//257 211//258 90//259
f 88//260 214//261 103//262
f 103//262 202//249 34//248
f 206//800 58//801 43//256 205//802
f 25//252 201//803 204//253
f 209//804 73//257 58//801 206//800
f 55//254 204//253 207//805
f 53//251 203//250 208//255
f 210//806 77//807 55//254 207//805
f 212//808 88//260 77//807 210//806
f 43//256 208//255 205//802
f 73//257 209//804 211//258
f 215//809 107//810 90//259 213//811
f 90//259 211//258 213//811
f 88//260 212//808 214//261
f 201//803 25//252 107//810 215//809
f 103//262 214//261 202//249
s 28
usemtl Blau
f 186//812 31//813 26//814 185//815
f 188//816 39//817 35//818 187//819
f 190//820 49//821 44//822 189//823
f 191//824 54//825 31//813 186//812
f 192//826 60//827 39//817 188//816
f 193//828 67//829 49//821 190//820
f 194//830 70//831 54//825 191//824
f 189//823 44//822 60//827 192//826
f 195//832 80//833 67//829 193//828
f 196//834 83//835 70//831 194//830
f 197//836 89//837 80//833 195//832
f 198//838 93//839 83//835 196//834
f 199//840 100//841 89//837 197//836
f 200//842 102//843 93//839 198//838
f 185//815 26//814 100//841 199//840
f 187//819 35//818 102//843 200//842
s 18
usemtl Orange
f 27//263 171//264 41//265
f 36//266 173//267 52//268
f 41//265 175//269 64//270
f 52//268 177//271 69//272
f 64//270 178//273 76//274
f 69//272 174//275 45//276
f 72//277 179//278 85//279
f 76//274 180//280 87//281
f 85//279 181//282 97//283
f 87//281 182//284 99//285
f 99//285 183//286 110//287
f 110//287 172//288 36//266
f 176//844 57//845 45//276 174//275
f 36//266 172//288 173//267
f 41//265 171//264 175//269
f 179//278 72//277 57//845 176//844
f 52//268 173//267 177//271
f 64//270 175//269 178//273
f 184//846 106//847 97//283 181//282
f 69//272 177//271 174//275
f 76//274 178//273 180//280
f 85//279 179//278 181//282
f 87//281 180//280 182//284
f 99//285 182//284 183//286
f 171//264 27//263 106//847 184//846
f 110//287 183//286 172//288
s 19
usemtl Violett
f 28//289 155//290 30//291
f 109//292 156//293 38//294
f 46//295 158//296 48//297
f 38//294 159//298 59//299
f 48//297 160//300 66//301
f 59//299 162//302 46//295
f 66//301 163//303 79//304
f 63//305 164//306 82//307
f 82//307 166//308 92//309
f 96//310 169//311 28//289
f 157//848 161//849 63//305 30//291
f 30//291 155//290 157//848
f 38//294 156//293 159//298
f 48//297 158//296 160//300
f 165//850 167//851 96//310 79//304
f 59//299 159//298 162//302
f 66//301 160//300 163//303
f 63//305 161//849 164//306
f 46//295 162//302 158//296
f 79//304 163//303 165//850
f 82//307 164//306 166//308
f 168//852 170//853 109//292 92//309
f 92//309 166//308 168//852
f 96//310 167//851 169//311
f 28//289 169//311 155//290
f 109//292 170//853 156//293
s 20
usemtl Gelb
f 139//312 124//313 111//314
f 136//315 123//316 138//317
f 134//318 120//319 136//315
f 131//320 118//321 134//318
f 126//322 115//323 131//320
f 139//312 111//314 126//322
s 21
f 78//324 151//325 95//326
f 78//324 149//327 151//325
f 74//328 147//329 47//330
f 65//331 146//332 78//324
s 20
f 112//854 127//855 138//317 125//856
f 124//313 139//312 137//857 122//858
f 138//317 123//316 125//856
f 122//858 137//857 135//859 121//860
f 136//315 120//319 123//316
f 121//860 135//859 133//861 119//861
f 113//862 128//863 132//864 117//865
f 134//318 118//321 120//319
f 116//866 119//861 133//861 130//866
f 117//865 132//864 129//867 114//868
f 131//320 115//323 118//321
f 116//866 130//866 128//863 113//862
f 114//868 129//867 127//855 112//854
f 126//322 111//314 115//323
s 21
f 141//869 37//870 108//871 154//872
f 140//873 29//874 105//875 153//876
f 154//872 108//871 98//877 152//878
f 153//876 105//875 95//326 151//325
f 152//878 98//877 86//879 150//880
f 150//880 86//879 75//881 148//882
f 148//882 75//881 62//883 145//884
f 78//324 146//332 149//327
f 146//332 65//331 47//330 143//885
f 74//328 51//886 147//329
f 51//886 144//887 147//329
f 145//884 62//883 40//888 142//889
f 144//887 51//886 37//870 141//869
f 142//889 40//888 29//874 140//873
f 47//330 147//329 143//885
s 22
usemtl Black
f 127//333 489//333 138//333
f 135//333 498//333 133//333
f 128//333 491//333 132//333
f 134//333 497//333 131//333
f 131//333 497//333 494//333
f 132//333 496//333 129//333
f 131//333 494//333 126//333
s 23
f 112//1 475//1 114//1
f 113//1 476//1 116//1
s 14
f 263//334 259//335 475//336
f 476//337 245//338 246//339
f 478//340 261//341 264//342
f 264//342 261//341 245//338
f 482//343 248//344 483//345
f 483//345 249//346 485//347
f 485//347 250//348 262//349
f 263//334 258//205 259//335
s 24
f 488//350 493//351 504//352
f 504//352 496//353 507//354
f 506//355 495//356 509//357
f 509//357 495//356 498//358
f 507//354 491//359 490//360
f 514//361 502//362 489//363
f 514//361 489//363 488//350
s 25
f 152//1 514//1 154//1
f 148//1 510//1 150//1
f 146//1 509//1 149//1
s 14
f 249//346 248//344 247//216
s 25
f 145//1 505//1 508//1
f 142//1 505//1 145//1
f 140//1 487//1 142//1
s 14
f 260//364 259//335 258//205
f 245//338 261//341 260//364
s 23
f 124//1 485//1 262//1
f 123//1 486//1 125//1
f 122//1 485//1 124//1
f 120//1 484//1 123//1
f 121//1 483//1 122//1
s 26
f 591//333 601//333 602//333
f 591//333 602//333 592//333
f 597//333 598//333 587//333
f 594//333 603//333 595//333
s 27
f 604//365 611//366 605//367
f 601//368 608//369 602//370
f 598//371 612//372 599//373
f 605//367 611//366 612//372
f 605//367 612//372 598//371
f 602//370 609//374 603//375
f 600//376 606//377 607//378
f 600//376 607//378 601//368
f 606//379 612//333 609//374
f 607//333 606//379 609//374
f 611//333 610//380 609//374
f 608//369 607//333 609//374
f 612//333 611//333 609//374
s 3
f 658//381 805//382 656//383
s 5
f 779//384 390//385 806//386
f 791//387 330//388 807//389
f 796//390 450//391 808//392
f 802//184 300//393 809//394
s 22
f 501//333 137//333 139//333 503//333
f 138//333 489//333 502//333
f 500//333 136//333 138//333 502//333
f 498//333 135//333 137//333 501//333
f 499//333 134//333 136//333 500//333
f 491//333 128//333 130//333 495//333
f 134//333 499//333 497//333
f 133//333 498//333 495//333
f 132//333 491//333 496//333
f 130//333 133//333 495//333
f 129//333 496//333 493//333
f 503//333 139//333 126//333 492//333
f 126//333 494//333 492//333
f 127//333 129//333 493//333
f 127//333 493//333 489//333
s 23
f 474//1 477//1 115//1 111//1
s 3
f 656//142 805//890 364//476
s 23
f 111//1 262//1 474//1
f 112//1 263//1 475//1
f 113//1 264//1 476//1
f 480//1 118//1 115//1 477//1
f 114//1 475//1 478//1
f 116//1 476//1 479//1
f 117//1 114//1 478//1
f 481//1 120//1 118//1 480//1
f 119//1 116//1 479//1
f 117//1 478//1 264//1
f 113//1 117//1 264//1
f 482//1 121//1 119//1 479//1
s 14
f 251//212 252//891 474//892 262//349
s 23
f 121//1 482//1 483//1
s 14
f 253//893 477//894 474//892 252//891
f 476//337 264//342 245//338
f 475//336 259//335 260//364
f 260//364 261//341 478//340 475//336
f 254//210 480//895 477//894 253//893
f 479//896 476//337 246//339
f 255//897 481//898 480//895 254//210
f 479//896 246//339 247//216
f 247//216 248//344 482//343 479//896
f 255//897 256//208 484//899 481//898
f 257//900 486//901 484//899 256//208
f 483//345 248//344 249//346
f 257//900 258//205 263//334 486//901
f 485//347 249//346 250//348
s 24
f 492//902 494//903 505//904 487//905
s 14
f 262//349 250//348 251//212
s 24
f 487//905 503//906 492//902
f 488//350 489//363 493//351
f 497//907 508//907 505//904 494//903
f 490//360 491//359 495//356
f 504//352 493//351 496//353
f 506//355 490//360 495//356
f 497//907 499//908 510//908 508//907
f 507//354 496//353 491//359
f 500//909 512//909 510//908 499//908
f 511//910 509//357 498//358
f 500//909 502//362 514//361 512//909
f 511//910 498//358 501//911
f 513//912 511//910 501//911
s 25
f 514//1 488//1 141//1 154//1
s 24
f 513//912 501//911 503//906
f 487//905 513//912 503//906
s 25
f 513//1 487//1 140//1 153//1
f 511//1 151//1 149//1 509//1
f 153//1 151//1 513//1
f 152//1 512//1 514//1
f 151//1 511//1 513//1
f 152//1 150//1 512//1
f 150//1 510//1 512//1
f 507//1 147//1 144//1 504//1
s 14
f 247//216 246//339 245//338
s 25
f 148//1 508//1 510//1
f 147//1 507//1 490//1
f 148//1 145//1 508//1
f 146//1 506//1 509//1
s 14
f 251//212 250//348 249//346
s 25
f 506//1 146//1 143//1 490//1
s 14
f 253//893 252//891 251//212 254//210
s 5
f 776//202 779//913 806//914
s 25
f 504//1 144//1 141//1 488//1
f 142//1 487//1 505//1
s 26
f 605//333 597//333 596//333 604//333
s 25
f 143//1 147//1 490//1
s 14
f 254//210 256//208 255//897
f 256//208 258//205 257//900
s 23
f 112//1 125//1 263//1
f 111//1 124//1 262//1
f 125//1 486//1 263//1
f 123//1 484//1 486//1
f 122//1 483//1 485//1
f 120//1 481//1 484//1
s 26
f 590//333 600//333 601//333
f 596//333 595//333 604//333
f 591//333 590//333 601//333
f 599//333 588//333 587//333 598//333
f 603//333 594//333 593//333 602//333
f 597//333 605//333 598//333
f 593//333 592//333 602//333
f 589//333 588//333 599//333
s 3
f 436//81 665//669 646//413 418//412
s 26
f 589//333 599//333 600//333
f 590//333 589//333 600//333
f 595//333 603//333 604//333
s 27
f 602//370 608//369 609//374
f 599//373 612//372 606//377
f 600//376 599//373 606//377
f 603//375 609//374 610//380
f 604//365 603//375 610//380
f 604//365 610//380 611//366
f 601//368 607//378 608//369
s 6
f 435//621 697//158 678//157 417//416
s 8
f 434//617 729//666 710//419 416//418
s 7
f 433//619 761//664 742//423 415//422
s 5
f 432//618 793//662 775//200 414//426
s 4
f 425//66 613//661 616//428 407//61
s 3
f 424//614 645//660 648//146 406//58
s 6
f 423//78 677//155 680//154 405//430
s 8
f 404//433 422//611 709//658 712//434
s 7
f 421//612 741//166 744//438 403//437
s 5
f 420//75 774//656 777//442 402//441
s 4
f 413//396 615//127 618//446 395//445
s 3
f 412//397 647//400 650//448 394//52
s 6
f 411//72 679//402 682//451 393//450
s 8
f 410//64 711//405 714//454 392//65
s 7
f 409//69 743//181 746//179 391//458
s 5
f 408//407 776//202 806//914 390//598
s 4
f 383//461 401//408 617//411 621//125
s 3
f 400//415 649//414 653//465 382//464
s 6
f 399//55 681//417 685//466 381//56
s 8
f 398//421 713//420 717//469 380//468
s 7
f 397//425 745//424 749//176 379//49
s 5
f 396//427 778//199 782//197 378//471
s 4
f 377//473 389//62 620//429 622//474
s 3
f 388//59 652//145 654//143 376//46
s 6
f 375//477 387//432 684//431 686//478
s 8
f 374//480 386//436 716//435 718//481
s 7
f 385//440 748//439 750//486 373//485
s 5
f 384//444 781//443 783//194 372//488
s 4
f 371//462 623//124 625//491 359//490
s 3
f 358//31 370//463 655//140 657//139
s 6
f 357//44 369//43 687//467 689//494
s 8
f 368//40 719//470 721//497 356//41
s 7
f 367//50 751//175 753//173 355//501
s 5
f 354//28 366//472 784//196 786//502
s 4
f 353//38 365//37 624//475 626//504
s 3
f 352//506 364//47 805//382 658//381
s 6
f 363//34 688//479 690//508 351//35
s 8
f 362//483 720//482 722//512 350//511
s 7
f 361//484 752//487 754//170 349//25
s 5
f 360//489 785//193 787//516 348//515
s 4
f 347//23 627//492 629//518 335//18
s 3
f 346//32 659//493 662//520 334//15
s 6
f 345//496 691//495 694//523 333//522
s 8
f 332//525 344//499 723//498 726//526
s 7
f 331//529 343//500 755//172 758//530
s 5
f 342//29 788//503 807//915 330//580
s 4
f 341//505 628//122 631//121 329//535
s 3
f 328//12 340//507 660//137 661//136
s 6
f 327//22 339//21 692//509 693//710
s 8
f 338//510 724//513 725//708 326//577
s 7
f 337//26 756//169 757//161 325//576
s 5
f 324//9 336//514 789//517 790//707
s 4
f 419//409 437//624 634//671 614//410
s 5
f 444//632 795//190 773//203 426//406
s 7
f 445//630 763//673 760//182 427//68
s 8
f 446//634 731//675 728//404 428//403
s 6
f 447//635 699//677 696//401 429//71
s 3
f 448//84 667//130 664//399 430//398
s 4
f 431//395 449//638 636//679 633//128
s 5
f 438//74 456//642 797//681 794//655
s 7
f 457//90 765//163 762//167 439//623
s 8
f 458//643 733//683 730//657 440//627
s 6
f 441//77 459//93 701//685 698//659
s 3
f 442//625 460//646 669//134 666//133
s 4
f 461//647 638//119 635//118 443//629
s 5
f 289//459 780//460 808//916 450//637
s 7
f 291//457 747//178 764//663 451//639
s 8
f 452//640 293//456 715//455 732//665
s 6
f 295//453 683//452 700//667 453//641
s 3
f 297//53 651//449 668//668 454//80
s 4
f 299//86 619//447 637//670 455//87
s 5
f 277//541 800//688 798//191 462//645
s 7
f 279//544 768//690 766//672 463//649
s 8
f 464//650 281//547 736//692 734//674
s 6
f 465//651 283//550 704//693 702//676
s 3
f 466//83 285//4 672//695 670//131
s 4
f 467//648 287//537 641//697 639//678
s 5
f 266//551 801//187 799//680 468//653
s 7
f 267//557 769//699 767//164 469//89
s 8
f 269//560 737//701 735//682 470//654
s 6
f 271//563 705//702 703//684 471//92
s 3
f 472//652 273//566 673//704 671//686
s 4
f 473//96 275//95 642//706 640//687
s 5
f 312//10 804//185 809//917 300//540
s 7
f 301//543 313//569 772//160 770//689
s 8
f 314//571 740//709 738//691 302//546
s 6
f 303//549 315//573 708//152 706//151
s 3
f 316//13 676//711 674//694 304//3
s 4
f 317//6 632//536 643//696 305//7
s 5
f 318//533 792//534 803//188 306//554
s 7
f 319//532 759//531 771//698 307//556
s 8
f 320//528 727//527 739//700 308//559
s 6
f 321//524 695//149 707//148 309//562
s 3
f 322//16 663//521 675//703 310//565
s 4
f 311//567 323//19 630//519 644//705
s 5
f 804//185 802//918 809//917
f 780//460 796//919 808//916
f 788//503 791//920 807//915
